<?xml version="1.0" encoding="utf-8"?>
<!-- Generator: Adobe Illustrator 23.0.1, SVG Export Plug-In . SVG Version: 6.00 Build 0)  -->
<svg version="1.1" xmlns="http://www.w3.org/2000/svg" xmlns:xlink="http://www.w3.org/1999/xlink" x="0px" y="0px"
	 viewBox="0 0 792 612" style="enable-background:new 0 0 792 612;" xml:space="preserve">
<style type="text/css">
	.st0{display:none;}
	.st1{display:inline;}
	.st2{clip-path:url(#SVGID_2_);}
	.st3{clip-path:url(#SVGID_4_);fill:#E5C126;}
	.st4{clip-path:url(#SVGID_6_);}
	.st5{opacity:0.2;clip-path:url(#SVGID_8_);enable-background:new    ;}
	.st6{clip-path:url(#SVGID_10_);}
	.st7{clip-path:url(#SVGID_12_);fill:#9F8830;}
	.st8{opacity:0.2;clip-path:url(#SVGID_14_);enable-background:new    ;}
	.st9{clip-path:url(#SVGID_16_);}
	.st10{clip-path:url(#SVGID_18_);fill:#9F8830;}
	.st11{clip-path:url(#SVGID_14_);fill:#E5C126;}
	.st12{clip-path:url(#SVGID_14_);fill:#98812F;}
	.st13{clip-path:url(#SVGID_14_);fill:#9F8830;}
	.st14{display:inline;fill:none;}
	.st15{clip-path:url(#SVGID_20_);}
	.st16{opacity:0.56;clip-path:url(#SVGID_22_);enable-background:new    ;}
	.st17{clip-path:url(#SVGID_24_);}
	.st18{clip-path:url(#SVGID_26_);}
	.st19{clip-path:url(#SVGID_22_);fill:#9F8830;}
	.st20{clip-path:url(#SVGID_28_);}
	.st21{opacity:0.56;clip-path:url(#SVGID_30_);enable-background:new    ;}
	.st22{clip-path:url(#SVGID_32_);}
	.st23{clip-path:url(#SVGID_34_);}
	.st24{clip-path:url(#SVGID_30_);fill:#E5C126;}
	.st25{clip-path:url(#SVGID_30_);fill:#98812F;}
	.st26{clip-path:url(#SVGID_30_);fill:#FFFFFF;}
	.st27{clip-path:url(#SVGID_36_);}
	.st28{fill:#FFFFFF;}
	.st29{font-family:'FrontPageNeue';}
	.st30{font-size:31.4683px;}
	.st31{font-size:31.4684px;}
	.st32{clip-path:url(#SVGID_38_);}
	.st33{clip-path:url(#SVGID_40_);fill:#FFFFFF;}
	.st34{clip-path:url(#SVGID_40_);fill:#9F8830;}
	.st35{clip-path:url(#SVGID_42_);}
	.st36{opacity:0.2;clip-path:url(#SVGID_44_);enable-background:new    ;}
	.st37{clip-path:url(#SVGID_46_);}
	.st38{clip-path:url(#SVGID_48_);fill:#E5C126;}
	.st39{clip-path:url(#SVGID_44_);fill:#E5C126;}
	.st40{clip-path:url(#SVGID_50_);}
	.st41{fill:#E5C126;}
	.st42{clip-path:url(#SVGID_52_);}
	.st43{clip-path:url(#SVGID_54_);fill:#E5C126;}
	.st44{clip-path:url(#SVGID_54_);fill:#E4C023;}
	.st45{enable-background:new    ;}
	.st46{fill:#7F7F7F;}
	.st47{fill:#FFFFFF;stroke:#000000;stroke-miterlimit:10;}
</style>
<g id="Layer_1" class="st0">
	<g class="st1">
		<defs>
			<rect id="SVGID_1_" width="792" height="612"/>
		</defs>
		<clipPath id="SVGID_2_">
			<use xlink:href="#SVGID_1_"  style="overflow:visible;"/>
		</clipPath>
		<g class="st2">
			<defs>
				<rect id="SVGID_3_" width="792" height="612"/>
			</defs>
			<clipPath id="SVGID_4_">
				<use xlink:href="#SVGID_3_"  style="overflow:visible;"/>
			</clipPath>
			<path class="st3" d="M252.7,315.7c72,0,130.2,59.2,128.5,131.6c-1.6,68.2-57.2,123.8-125.4,125.4
				c-72.4,1.7-131.6-56.5-131.6-128.5C124.2,373.3,181.7,315.7,252.7,315.7"/>
			<path class="st3" d="M169,444.3c0-46.2,37.5-83.7,83.7-83.7s83.7,37.5,83.7,83.7s-37.5,83.7-83.7,83.7S169,490.5,169,444.3"/>
		</g>
	</g>
	<g class="st1">
		<defs>
			<rect id="SVGID_5_" width="792" height="612"/>
		</defs>
		<clipPath id="SVGID_6_">
			<use xlink:href="#SVGID_5_"  style="overflow:visible;"/>
		</clipPath>
		<g class="st4">
			<defs>
				<rect id="SVGID_7_" width="792" height="612"/>
			</defs>
			<clipPath id="SVGID_8_">
				<use xlink:href="#SVGID_7_"  style="overflow:visible;"/>
			</clipPath>
			<g class="st5">
				<g>
					<defs>
						<rect id="SVGID_9_" x="170" y="375" width="166" height="155"/>
					</defs>
					<clipPath id="SVGID_10_">
						<use xlink:href="#SVGID_9_"  style="overflow:visible;"/>
					</clipPath>
					<g class="st6">
						<defs>
							<rect id="SVGID_11_" x="170.4" y="375.4" width="165.4" height="154.5"/>
						</defs>
						<clipPath id="SVGID_12_">
							<use xlink:href="#SVGID_11_"  style="overflow:visible;"/>
						</clipPath>
						<path class="st7" d="M333.2,460c-0.8,0-1.6,0-2.4,0c-0.6,0-1.1,0-1.7,0c-0.1-0.5-0.1-0.8-0.1-1.2h-1.3c0,0.6-0.1,1.1-0.1,1.6
							c-0.4,0.1-0.7,0.1-1.1,0.2c0,0.6-0.1,1.2-0.1,1.8c-0.2,0.1-0.4,0.2-0.7,0.3c0,0.4,0,0.8,0,1.2c0,0.2-0.1,0.5-0.2,0.5
							c-0.5,0.2-0.4,0.5-0.4,0.9c0,1.6,0,3.3,0,4.9c0,0.1,0,0.2-0.1,0.3c-0.3,0.1-0.5,0.2-0.8,0.3v9.9c-0.3,0.1-0.5,0.1-0.8,0.2
							c0,0.3-0.1,0.6-0.1,0.9c-0.3,0.1-0.5,0.2-0.8,0.3v9.7c6.3-8.9,10.9-19.1,13.3-30.1C335.4,460.7,334.5,460.1,333.2,460"/>
						<path class="st7" d="M319,472c-0.4-0.1-0.7-0.2-1-0.2v-4.2c-0.5-0.1-0.9-0.1-1.3-0.1v-2.3c0.4-0.1,0.7-0.1,1.1-0.2
							c0-0.3-0.1-0.6-0.1-1h-1.9v-1.4c0-12.1,0-24.2,0-36.4c0-0.3,0-0.6,0-0.9c0-0.2-0.1-0.4-0.2-0.4c-0.6-0.2-0.5-0.7-0.5-1.1
							c0-2.8,0-5.6,0-8.4v-1.1c-0.4-0.1-0.7-0.1-1-0.2c0-0.6-0.1-1.1-0.1-1.7c-0.3-0.1-0.5-0.1-0.9-0.2v-4.7
							c-0.3-0.1-0.6-0.2-0.9-0.3c0-0.8,0.1-1.6,0-2.3c-0.2-1.1-0.5-2.1-0.8-3.2c-0.1-0.4-0.2-0.8-0.4-1c-0.4-0.5-0.5-1-0.4-1.6
							c0-3.3,0-6.7,0-10c0-0.2,0-0.4-0.1-0.6h-0.7v1.2c0,3.1,0,6.2,0,9.4c0,0.5,0,1-0.5,1.4c-0.3,0.3-0.6,0.8-0.7,1.2
							c-0.3,0.9-0.5,1.9-0.7,2.9c-0.2,0.1-0.4,0.2-0.8,0.3v2.5c-0.4,0.1-0.6,0.2-0.9,0.2c0,1.3,0,2.5,0,3.8c0,0.6-0.1,1.1-0.7,1.2
							c0,0.6,0,1.1-0.1,1.6c-0.3,0.1-0.5,0.2-0.8,0.3c0,3.5,0,7,0,10.4c-0.4,0.1-0.7,0.2-1,0.2c0,0.1,0,0.1,0,0.1
							c0,12.8,0,25.6,0,38.3c0,0.1,0,0.1,0,0.2c0,0.1,0,0.1,0,0.2c0,0,0,0.1-0.1,0.1c0,0,0,0-0.1,0.1c-0.4,0-0.8,0.1-1.3,0.1v0.8
							c0.3,0.1,0.5,0.2,0.7,0.2v2.2c-0.3,0.1-0.5,0.2-0.8,0.3v5.1c-0.4,0-0.7,0-1-0.1c0-3.8,0-7.4,0-11.1c0-3.7,0-7.4,0-11.1
							c-2.3,0-4.4,0-6.6,0v-40c-0.4-0.1-0.7-0.1-1.2-0.2c0-1,0-2,0-2.9c0-1.6,0-3.2,0-4.8c0-0.2-0.1-0.4-0.2-0.6
							c-0.3,0-0.6,0.1-1,0.1v2.6h-2.4v-3.1c-0.6-0.1-1-0.1-1.5-0.2c0-1.1,0-2.1,0-3.2c0-0.3-0.1-0.7-0.2-0.7c-0.6-0.2-0.4-0.6-0.4-1
							c0-0.8-0.1-1.4-0.6-2c-0.1-0.1-0.2-0.4-0.2-0.6c-0.1-1.4-0.7-2.4-2.1-3v-15.3c-0.3,0-0.5,0-0.8,0.1v15.3
							c-1.3,0.5-1.9,1.4-2.1,2.7c0,0.2-0.2,0.5-0.4,0.6c-0.7,0.5-1,1.3-1,2.2c0,0.3,0,0.6,0,1c-0.3,0.1-0.6,0.2-0.9,0.3v5.5h-3.5
							v7.6c-0.3,0.1-0.6,0.1-1,0.2v4v4v4.1v3.9v3.9v3.9v4v4.1c0,1.3,0,2.6,0,3.9c0,1.3,0,2.6,0,4h-1.2c-1.2,0-2.4,0-3.6,0
							c-0.6,0-1.1,0.1-1.6,0.6c-0.7,0.8-1.5,1.6-2.4,2.3c-0.6,0.5-0.8,1-0.8,1.8c0,4.7,0,9.4,0,14c0,0.4,0,0.7,0,1.1H264V469
							c0-6.3,0-12.7,0-19c0-0.3,0-0.6,0-0.8c0-0.2-0.1-0.4-0.2-0.5c-0.6-0.1-0.5-0.6-0.5-1c0-3.2,0-6.4,0-9.7c0-0.5-0.1-1-0.5-1.3
							c-0.8-0.6-1.3-1.4-1.2-2.5c0,0-0.1-0.1-0.1-0.2c-0.4,0-0.7-0.1-1.1-0.1c-0.1-0.3,0-0.7-0.2-0.8c-0.6-0.4-0.4-0.9-0.5-1.4
							c0-0.7,0-1.4,0-2.1c0-0.1-0.1-0.2-0.1-0.3c-0.1,0-0.3-0.1-0.4,0c-0.1,0-0.3,0-0.5,0.1v3.1c-0.3,0.1-0.5,0.2-0.7,0.4
							c0.1,0.9-0.3,1.7-0.7,2.5c-0.3,0.6-0.7,1.2-0.9,1.9c-0.2,0.5-0.3,1-0.3,1.5c0,2.9,0,5.9,0,8.8c0,0.4,0,0.7,0,1.1
							c-0.5,0-0.9,0.1-1.5,0.1v19h-7.8c-0.2-0.4-0.5-0.7-0.8-1.1c-0.6-0.9-0.7-1-1.9-0.6v3.3c0,1.1,0,2.1,0,3.2
							c0,1.1,0.1,2.2-0.1,3.3h-1.8v-10.6c-0.7,0-1.3-0.1-2-0.1v-37.6c-0.5-0.1-0.8-0.1-1.2-0.1c0-0.6-0.1-1.1-0.1-1.7
							c-0.4-0.1-0.7-0.2-0.9-0.2c-0.2-0.6-0.2-1.2-0.5-1.6c-0.6-0.9-1.3-1.8-1.9-2.7c-0.3-0.4-0.4-0.9-0.4-1.4c0-1.8,0-3.6,0-5.4
							c0-0.4,0-0.8,0-1.1c0-0.2-0.2-0.3-0.4-0.4c-0.1,0-0.2,0.1-0.2,0.1v1c0,1.9,0,3.8,0,5.7c0,0.3,0,0.7-0.2,1
							c-0.6,1-1.2,1.9-1.9,2.8c-0.4,0.5-0.6,0.9-0.6,1.5c0,0.2,0,0.4-0.1,0.6c-0.4,0.1-0.7,0.2-1,0.2c0,0.6-0.1,1.1-0.1,1.6
							c-0.3,0.1-0.5,0.3-0.8,0.4v9.3v9.2c0,3.1,0,6.2,0,9.4c0,3.1,0,6.1,0,9.3c-0.9,0-1.8,0.1-2.6,0.1v12.1h-3v-44
							c-0.4,0-0.7,0-1.1,0.1v6.8c-0.4,0-0.6,0-0.8,0c-0.1-0.3-0.2-0.6-0.3-0.9c-0.4-0.1-0.7-0.1-1.1-0.2c-0.1-2.6,0-5.2-0.1-7.9
							h-3.9v-14.3h-2.2v14.4H211v8.1c-0.5,0.1-0.8,0.1-1.2,0.2c-0.1,0.4-0.1,0.8-0.2,1.3c-0.4,0-0.7-0.1-1-0.1v-7.5h-1v14.1h-2.1
							v-3.6v-3.6v-3.5v-3.5c0-1.2,0-2.4,0-3.6c0-1.2,0.1-2.3,0-3.5c-1.4-0.1-2.7,0.1-4.1-0.1v-1.2c0-2.1-0.1-4.3,0-6.4
							c0-1.2-0.2-2.1-1-2.9c-0.9-1-1.6-2-1.4-3.5c0-0.1-0.1-0.1-0.1-0.2c-0.3-0.1-0.7-0.1-1-0.2c-0.1-0.4-0.1-0.7-0.2-1
							c-0.6,0-1.2-0.1-1.8-0.1c-0.1-0.5-0.1-0.9-0.2-1.3c-0.3,0-0.6,0-0.9,0.1c0,0.5-0.1,0.9-0.1,1.2c-0.4,0.1-0.8,0.2-1.1,0.4
							c-0.4,0.3-0.7,0.4-1.1,0.4c-0.3,0-0.5,0.1-0.8,0.1c0,0.4,0,0.7,0,1c0.1,0.8-0.1,1.4-0.7,2c-0.6,0.6-1.1,1.3-1.7,1.9
							c-0.4,0.4-0.5,0.8-0.5,1.4c0,2.5,0,4.9,0,7.4v1.3h-4.2v6.2c0,2,0,4.1,0,6.1c0,2,0,4,0,6c-0.5,0.1-0.8,0.1-1.3,0.1
							c0,0.5,0,1,0,1.5c0,0.7,0,1.4,0,2.1c0,3.1,0,6.3,0,9.4c0,0.2,0,0.5-0.1,0.7c-0.6,1.1-1.4,2.1-2.3,3c-0.1-0.4-0.1-0.7-0.1-1
							c0-1.6,0-3.1,0-4.7c0-0.3-0.1-0.7-0.2-0.7c-0.6-0.2-0.5-0.7-0.5-1.1c0-0.8,0-1.7,0-2.5c0-0.3-0.1-0.5-0.1-0.8
							c-0.5-0.1-0.8-0.1-1.2-0.1c0-0.7-0.1-1.3-0.1-1.9c-0.4-0.1-0.7-0.1-1.1-0.2v-8.8c-0.4-0.1-0.7-0.2-1-0.2v-1.2
							c0-3.2,0-6.4,0-9.6c0-0.3,0-0.6,0-0.8c0-0.1-0.3-0.2-0.6-0.5c0,4.2,0,8.1,0,12.1c-0.5,0.1-0.9,0.1-1.3,0.2v8.8
							c-0.4,0.1-0.8,0.1-1.2,0.1c0,0.7-0.1,1.3-0.1,1.9c-0.3,0.1-0.6,0.2-0.9,0.3v3.9c-0.3,0.1-0.6,0.1-0.9,0.2v6.2
							c-0.4,0.1-0.7,0.1-1,0.2v4.4c4.5,17.1,14.1,32.1,27.2,43.3l-2.1-0.1l14.3,11.4l24.1,8.5l19.8,2.2l20.2-1.7l19.5-8.3l9.2-5.5
							l-2.7-0.5c8-5.4,15.1-12,20.9-19.7v-11.9c-0.6-0.1-1.2-0.1-1.9-0.1V472z"/>
					</g>
				</g>
			</g>
		</g>
	</g>
	<g class="st1">
		<defs>
			<rect id="SVGID_13_" width="792" height="612"/>
		</defs>
		<clipPath id="SVGID_14_">
			<use xlink:href="#SVGID_13_"  style="overflow:visible;"/>
		</clipPath>
		<g class="st8">
			<g>
				<defs>
					<rect id="SVGID_15_" x="173" y="107" width="158" height="147"/>
				</defs>
				<clipPath id="SVGID_16_">
					<use xlink:href="#SVGID_15_"  style="overflow:visible;"/>
				</clipPath>
				<g class="st9">
					<defs>
						<rect id="SVGID_17_" x="174" y="107.4" width="156.1" height="145.8"/>
					</defs>
					<clipPath id="SVGID_18_">
						<use xlink:href="#SVGID_17_"  style="overflow:visible;"/>
					</clipPath>
					<path class="st10" d="M327.6,187.2c-0.8,0-1.5,0-2.3,0c-0.5,0-1.1,0-1.6,0c-0.1-0.5-0.1-0.8-0.1-1.1h-1.2c0,0.5-0.1,1-0.1,1.5
						c-0.3,0.1-0.7,0.1-1,0.2c0,0.6-0.1,1.1-0.1,1.7c-0.2,0.1-0.4,0.2-0.7,0.3c0,0.4,0,0.8,0,1.2c0,0.2-0.1,0.5-0.2,0.5
						c-0.4,0.2-0.3,0.5-0.3,0.8c0,1.5,0,3.1,0,4.6c0,0.1,0,0.2-0.1,0.3c-0.2,0.1-0.5,0.2-0.8,0.2v9.4c-0.3,0.1-0.5,0.1-0.7,0.2
						c0,0.3-0.1,0.6-0.1,0.8c-0.3,0.1-0.5,0.2-0.8,0.3v9.2c5.9-8.4,10.2-18.1,12.6-28.4C329.7,187.9,328.8,187.3,327.6,187.2"/>
					<path class="st10" d="M314.2,198.5c-0.4-0.1-0.6-0.1-1-0.2v-4c-0.5,0-0.8-0.1-1.3-0.1V192c0.3-0.1,0.7-0.1,1-0.2
						c0-0.3-0.1-0.6-0.1-0.9h-1.8v-1.3c0-11.4,0-22.9,0-34.3c0-0.3,0-0.6,0-0.9c0-0.1-0.1-0.4-0.2-0.4c-0.6-0.2-0.5-0.6-0.5-1
						c0-2.6,0-5.3,0-7.9V144c-0.4-0.1-0.6-0.1-0.9-0.2c0-0.6-0.1-1.1-0.1-1.6c-0.3-0.1-0.5-0.1-0.8-0.2v-4.4
						c-0.3-0.1-0.5-0.2-0.8-0.3c0-0.8,0.1-1.5,0-2.2c-0.2-1-0.5-2-0.7-3c-0.1-0.3-0.2-0.7-0.4-1c-0.4-0.5-0.4-1-0.4-1.5
						c0-3.1,0-6.3,0-9.4c0-0.2,0-0.4-0.1-0.6h-0.7v1.1c0,2.9,0,5.9,0,8.8c0,0.5,0,0.9-0.5,1.3c-0.3,0.3-0.5,0.7-0.7,1.2
						c-0.3,0.9-0.4,1.8-0.7,2.7c-0.2,0.1-0.4,0.2-0.7,0.3v2.3c-0.3,0.1-0.6,0.1-0.9,0.2c0,1.2,0,2.4,0,3.6c0,0.6-0.1,1-0.6,1.1
						c0,0.6,0,1-0.1,1.5c-0.3,0.1-0.5,0.2-0.7,0.3c0,3.3,0,6.6,0,9.8c-0.4,0.1-0.7,0.2-1,0.2c0,0.1,0,0.1,0,0.1
						c0,12.1,0,24.1,0,36.2c0,0.1,0,0.1,0,0.2c0,0.1,0,0.1,0,0.2c0,0,0,0.1-0.1,0.1c0,0,0,0-0.1,0.1c-0.4,0-0.8,0.1-1.2,0.1v0.8
						c0.3,0.1,0.5,0.2,0.7,0.2v2.1c-0.3,0.1-0.5,0.2-0.8,0.3v4.8c-0.3,0-0.6,0-0.9-0.1c0-3.5,0-7,0-10.5c0-3.5,0-7,0-10.5
						c-2.2,0-4.2,0-6.3,0v-37.7c-0.4-0.1-0.7-0.1-1.1-0.2c0-0.9,0-1.9,0-2.8c0-1.5,0-3,0-4.5c0-0.2-0.1-0.4-0.1-0.6
						c-0.3,0-0.6,0.1-1,0.1v2.4h-2.2v-2.9c-0.5-0.1-0.9-0.1-1.4-0.2c0-1,0-2,0-3c0-0.2-0.1-0.7-0.2-0.7c-0.6-0.1-0.4-0.6-0.4-1
						c0-0.7-0.1-1.4-0.6-1.9c-0.1-0.1-0.2-0.3-0.2-0.5c-0.1-1.3-0.7-2.3-2-2.9v-14.5c-0.3,0-0.5,0-0.8,0.1v14.4
						c-1.2,0.5-1.8,1.4-2,2.5c0,0.2-0.2,0.4-0.3,0.5c-0.7,0.5-1,1.2-0.9,2c0,0.3,0,0.6,0,0.9c-0.3,0.1-0.5,0.2-0.9,0.3v5.2h-3.3v7.2
						c-0.3,0.1-0.6,0.1-0.9,0.2v3.7v3.7v3.8v3.7v3.7v3.7v3.7v3.8c0,1.2,0,2.5,0,3.7c0,1.2,0,2.5,0,3.8h-1.1c-1.1,0-2.3,0-3.4,0
						c-0.6,0-1,0.1-1.5,0.6c-0.7,0.8-1.4,1.5-2.2,2.2c-0.5,0.5-0.7,1-0.7,1.7c0,4.4,0,8.8,0,13.2c0,0.3,0,0.7,0,1h-1.3v-1.2
						c0-6,0-12,0-17.9c0-0.3,0-0.5,0-0.8c0-0.2-0.1-0.4-0.1-0.4c-0.6-0.1-0.4-0.6-0.4-0.9c0-3,0-6.1,0-9.1c0-0.5,0-0.9-0.5-1.2
						c-0.8-0.6-1.2-1.3-1.1-2.3c0,0-0.1-0.1-0.1-0.2c-0.3,0-0.7-0.1-1-0.1c-0.1-0.3,0-0.7-0.2-0.8c-0.6-0.3-0.4-0.9-0.4-1.4
						c0-0.7,0-1.3,0-2c0-0.1-0.1-0.2-0.1-0.3c-0.1,0-0.3-0.1-0.4,0c-0.1,0-0.2,0-0.4,0.1v2.9c-0.3,0.1-0.5,0.2-0.7,0.3
						c0.1,0.9-0.2,1.6-0.6,2.3c-0.3,0.6-0.6,1.2-0.9,1.8c-0.2,0.4-0.3,0.9-0.3,1.4c0,2.8,0,5.6,0,8.3c0,0.3,0,0.7,0,1
						c-0.5,0-0.9,0.1-1.4,0.1v17.9h-7.4c-0.2-0.3-0.5-0.7-0.7-1c-0.6-0.9-0.7-0.9-1.8-0.6v3.1c0,1,0,2,0,3c0,1,0.1,2.1-0.1,3.1h-1.7
						v-10c-0.7,0-1.2-0.1-1.9-0.1v-35.5c-0.4-0.1-0.8-0.1-1.2-0.1c0-0.6-0.1-1.1-0.1-1.6c-0.4-0.1-0.7-0.2-0.8-0.2
						c-0.2-0.6-0.2-1.1-0.4-1.6c-0.5-0.9-1.2-1.7-1.8-2.5c-0.3-0.4-0.4-0.8-0.4-1.3c0-1.7,0-3.4,0-5.1c0-0.4,0-0.7,0-1.1
						c0-0.1-0.2-0.3-0.3-0.4c-0.1,0-0.2,0.1-0.2,0.1v1c0,1.8,0,3.6,0,5.4c0,0.3,0,0.7-0.1,0.9c-0.6,0.9-1.1,1.8-1.8,2.7
						c-0.4,0.4-0.6,0.8-0.5,1.4c0,0.2,0,0.4-0.1,0.5c-0.4,0.1-0.7,0.1-1,0.2c0,0.6-0.1,1-0.1,1.5c-0.3,0.1-0.5,0.2-0.7,0.4v8.8v8.7
						c0,2.9,0,5.9,0,8.8c0,2.9,0,5.8,0,8.7c-0.9,0-1.7,0.1-2.5,0.1v11.4h-2.8v-41.5c-0.4,0-0.7,0-1.1,0.1v6.4c-0.3,0-0.6,0-0.8,0
						c-0.1-0.3-0.2-0.6-0.3-0.8c-0.3-0.1-0.6-0.1-1-0.2c-0.1-2.5,0-4.9-0.1-7.5H218V146h-2.1v13.6h-3.7v7.6
						c-0.4,0.1-0.8,0.1-1.1,0.2c-0.1,0.4-0.1,0.8-0.2,1.2c-0.3,0-0.6-0.1-1-0.1v-7h-0.9v13.3h-2v-3.4V168v-3.3v-3.3
						c0-1.1,0-2.3,0-3.4c0-1.1,0.1-2.2,0-3.3c-1.3-0.1-2.6,0-3.9-0.1v-1.2c0-2-0.1-4.1,0-6.1c0-1.1-0.2-2-1-2.8
						c-0.9-0.9-1.6-1.9-1.3-3.3c0,0-0.1-0.1-0.1-0.2c-0.3-0.1-0.7-0.1-1-0.2c-0.1-0.3-0.1-0.6-0.1-0.9c-0.6,0-1.1-0.1-1.7-0.1
						c-0.1-0.4-0.1-0.8-0.2-1.2c-0.3,0-0.6,0-0.8,0.1c0,0.4-0.1,0.8-0.1,1.2c-0.4,0.1-0.8,0.2-1,0.4c-0.3,0.3-0.7,0.4-1.1,0.3
						c-0.2,0-0.5,0.1-0.8,0.1c0,0.4,0,0.7,0,0.9c0.1,0.7-0.1,1.3-0.7,1.8c-0.6,0.5-1,1.2-1.6,1.7c-0.4,0.4-0.5,0.8-0.5,1.3
						c0,2.3,0,4.6,0,7v1.2h-3.9v5.8c0,1.9,0,3.9,0,5.8c0,1.9,0,3.8,0,5.6c-0.5,0-0.8,0.1-1.2,0.1c0,0.5,0,0.9,0,1.4c0,0.7,0,1.3,0,2
						c0,3,0,5.9,0,8.9c0,0.2,0,0.5-0.1,0.7c-0.6,1-1.3,1.9-2.2,2.8c-0.1-0.4-0.1-0.7-0.1-1c0-1.5,0-2.9,0-4.4c0-0.2-0.1-0.7-0.2-0.7
						c-0.6-0.2-0.5-0.6-0.5-1c0-0.8,0-1.6,0-2.4c0-0.2-0.1-0.5-0.1-0.7c-0.4,0-0.8-0.1-1.2-0.1c0-0.6-0.1-1.2-0.1-1.8
						c-0.4-0.1-0.7-0.1-1.1-0.2v-8.3c-0.4-0.1-0.6-0.1-1-0.2v-1.1c0-3,0-6,0-9c0-0.3,0-0.5,0-0.8c0-0.1-0.2-0.2-0.5-0.4
						c0,3.9,0,7.7,0,11.4c-0.5,0.1-0.8,0.1-1.2,0.2v8.3c-0.4,0-0.7,0.1-1.1,0.1c0,0.6-0.1,1.2-0.1,1.8c-0.3,0.1-0.6,0.2-0.9,0.3v3.7
						c-0.3,0.1-0.5,0.1-0.8,0.2v5.8c-0.4,0.1-0.6,0.1-1,0.1v4.1c4.2,16.1,13.3,30.3,25.7,40.8l-2-0.1l13.5,10.7l22.7,8l18.7,2.1
						l19.1-1.6l18.4-7.8l8.7-5.2l-2.5-0.5c7.6-5.1,14.3-11.3,19.7-18.6v-11.2c-0.6,0-1.1-0.1-1.8-0.1V198.5z"/>
				</g>
			</g>
		</g>
		<path class="st11" d="M251.7,300.9c-34.1,0-66.1-13-90.5-36.9c-25.2-24.6-39-57.5-39-92.7c0-71.4,58.1-129.6,129.6-129.6
			c35.2,0,68.1,13.9,92.7,39c24.6,25.2,37.7,58.4,36.8,93.6c-0.8,33.2-14.3,64.6-38,88.4c-23.7,23.7-55.1,37.2-88.4,38
			C253.8,300.9,252.7,300.9,251.7,300.9 M251.7,49.4c-67.2,0-121.9,54.7-121.9,121.9c0,33.1,13,64.1,36.7,87.2
			c23.7,23.1,54.9,35.4,88.1,34.6c31.3-0.7,60.8-13.4,83.1-35.8c22.3-22.3,35-51.9,35.8-83.1c0.8-33.1-11.5-64.4-34.6-88.1
			C315.8,62.5,284.8,49.4,251.7,49.4"/>
		<path class="st11" d="M251.7,254.7c-46,0-83.4-37.4-83.4-83.4s37.4-83.4,83.4-83.4s83.4,37.4,83.4,83.4S297.7,254.7,251.7,254.7
			 M251.7,91c-44.3,0-80.3,36-80.3,80.3c0,44.3,36,80.3,80.3,80.3s80.3-36,80.3-80.3C332,127,296,91,251.7,91"/>
		<path class="st11" d="M144.7,171.3c0-2.6,2.1-4.7,4.7-4.7c2.6,0,4.7,2.1,4.7,4.7s-2.1,4.7-4.7,4.7
			C146.8,176,144.7,173.9,144.7,171.3"/>
		<path class="st11" d="M350.4,171.3c0-2.6,2.1-4.7,4.7-4.7c2.6,0,4.7,2.1,4.7,4.7s-2.1,4.7-4.7,4.7
			C352.5,176,350.4,173.9,350.4,171.3"/>
		<polygon class="st11" points="180.7,112.5 174.4,109.9 181.6,116 178.7,119.5 162.7,105.7 165.6,102.3 175.2,106.6 169.6,97.8 
			172.5,94.3 188.5,108.1 185.5,111.5 178.3,105.3 181.9,111.1 		"/>
		<path class="st11" d="M195.9,98.8l1.1,2l-3.6,2.7l-9.2-19.4l3.6-2.7L203.5,96l-3.6,2.7l-1.6-1.6L195.9,98.8z M195.6,94.2l-4.6-4.8
			l3.1,5.9L195.6,94.2z"/>
		<path class="st11" d="M209.9,82.9l3.5,7.8l-4.1,1.8l-8.6-19.2l5.5-2.4c3.7-1.6,6.2-0.8,7.7,2.5l0.7,1.5c0.6,1.3,0.8,2.5,0.5,3.5
			c0.9,0.5,1.7,1.4,2.3,2.8l2,4.4c0.3,0.7,0.8,1.4,1.3,1.9l-4.1,1.8c-0.6-0.5-1-1.1-1.3-1.9l-2-4.4c-0.4-0.9-1.1-1.2-2-0.8
			L209.9,82.9z M209.7,78.7c0.9-0.4,1.2-1.1,0.8-2l-0.7-1.5c-0.4-0.9-1.1-1.2-2-0.8l-1.4,0.6l1.9,4.3L209.7,78.7z"/>
		<polygon class="st11" points="232.1,84.3 227.6,85.1 223.5,64.5 228,63.6 229.2,69.7 230.9,63 235.6,62.1 232.8,72.3 239.7,82.7 
			235,83.7 231,77.1 230.8,77.9 		"/>
		<polygon class="st11" points="264.8,61.8 264.8,74.7 268.4,62.3 272.9,63 265.9,83.2 261.4,82.6 260.4,61.2 		"/>
		<rect x="271.5" y="74" transform="matrix(0.311 -0.9504 0.9504 0.311 121.82 320.6043)" class="st11" width="21" height="4.5"/>
		<polygon class="st11" points="307.6,76.2 305.7,79.6 300.4,76.8 298.2,80.9 302.2,83 300.4,86.5 296.4,84.3 294.2,88.4 
			299.5,91.3 297.7,94.7 288.4,89.8 298.3,71.2 		"/>
		<path class="st11" d="M313.2,95.3l-5.5,6.5l-3.4-2.9l13.6-16l4.6,3.9c3.1,2.6,3.4,5.3,1.1,8l-1.1,1.3c-0.9,1.1-1.9,1.8-3,2
			c-0.1,1.1-0.6,2.2-1.5,3.3l-3.1,3.7c-0.5,0.6-0.9,1.3-1.1,2l-3.4-2.9c0.2-0.7,0.6-1.4,1.1-2l3.1-3.7c0.6-0.8,0.6-1.5-0.2-2.1
			L313.2,95.3z M316.9,93.3c0.8,0.6,1.5,0.6,2.1-0.2l1.1-1.3c0.6-0.8,0.6-1.5-0.2-2.1l-1.1-1l-3,3.6L316.9,93.3z"/>
		<path class="st11" d="M323,113.9l-2,1.1l-2.7-3.6l19.2-9.6l2.7,3.6l-14.2,16l-2.7-3.6l1.6-1.6L323,113.9z M327.5,113.5l4.7-4.8
			l-5.8,3.3L327.5,113.5z"/>
		<path class="st11" d="M194.1,248.1c2.2-3.4,5-3.9,8.6-1.6c3.6,2.3,4.3,5.1,2.1,8.5l-0.8,1.3l-4-2.6l1.1-1.8
			c0.5-0.8,0.4-1.5-0.5-2.1c-0.9-0.6-1.6-0.4-2.2,0.4l-5.9,9.1c-0.5,0.8-0.4,1.5,0.5,2.1c0.9,0.6,1.6,0.4,2.1-0.4l1.1-1.8l4,2.6
			l-0.8,1.3c-2.2,3.4-5,3.9-8.6,1.6c-3.6-2.3-4.3-5.1-2.1-8.5L194.1,248.1z"/>
		<path class="st11" d="M212.8,259.1c1.3-3.8,4-4.9,8-3.5c4,1.4,5.3,4,4,7.8l-3.2,9.1c-1.3,3.8-4,4.9-8,3.5c-4-1.4-5.3-4-4-7.8
			L212.8,259.1z M213.9,270.4c-0.3,0.9,0,1.6,1,2c1,0.4,1.7,0.1,2-0.9l3.6-10.2c0.3-0.9,0-1.6-1-1.9c-1-0.4-1.7-0.1-2,0.9
			L213.9,270.4z"/>
		<polygon class="st11" points="239.1,278.8 237.6,272.1 236.6,281.5 231.9,281 234.1,260.1 238.8,260.6 240.9,270.9 245.1,261.2 
			249.9,261.7 247.7,282.7 242.9,282.2 243.9,272.8 241.1,279 		"/>
		<polygon class="st11" points="268.6,260.2 269.1,264.1 262.8,264.9 263.3,269.5 268.1,268.9 268.5,272.8 263.8,273.4 264.4,278 
			270.7,277.3 271.1,281.1 260.1,282.5 257.6,261.6 		"/>
		<path class="st11" d="M282.3,256.6c4-1.4,6.7-0.2,8,3.6l3,8.5c1.3,3.8,0,6.4-4,7.8l-6,2.1l-6.9-19.9L282.3,256.6z M286.4,273.3
			l1.5-0.5c1-0.4,1.3-1,1-1.9l-3.4-9.6c-0.3-0.9-1-1.2-2-0.9l-1.5,0.5L286.4,273.3z"/>
		<polygon class="st11" points="305.4,260 295,251.6 299,249 304.1,253.6 302.2,247 306.2,244.4 309.4,257.4 313.9,264.5 309.8,267 
					"/>
		<path class="st11" d="M253.1,102.2c0-1.6,1.3-2.9,2.9-2.9c1.6,0,2.9,1.3,2.9,2.9c0,1.6-1.3,2.9-2.9,2.9
			C254.4,105.1,253.1,103.8,253.1,102.2"/>
		<path class="st11" d="M243.2,112.6c0,0-0.4,1.9,1.6,1.9l1.1-1.1c0,0,0.4-0.1,1.5-0.6l8.3-7.9l-2.6-2.9l-8.7,8.9
			c0,0-0.2,0.2-0.2,0.8L243.2,112.6z"/>
		<polygon class="st11" points="249.7,109.5 250.3,110.8 251.5,111.2 252.2,115.9 251.9,116.8 249.3,116.8 246.4,116.6 246.8,112.5 
					"/>
		<path class="st11" d="M243.3,113.3l-1.2,1.4c0,0,0.3,0.8,1.1,0.8l1.5-1.8L243.3,113.3z"/>
		<path class="st11" d="M250.9,229.1c-1.7-8.8-3.2-34.6-3.2-34.9c-0.1-19.6-5.6-52.8-5.7-53.1c-2.9-20.3,0.2-26.1,0.3-26.3l0.8,0.4
			l-0.4-0.2l0.4,0.2c0,0.1-3.1,5.9-0.2,25.7c0.1,0.3,5.6,33.6,5.7,53.3c0,0.2,1.5,26,3.2,34.7L250.9,229.1z"/>
		<rect x="250" y="115.2" class="st11" width="1.6" height="112.8"/>
		<path class="st11" d="M249.8,226.8c0,0-1.3,1-1.2,4.3c0,0,0.1,1.6,3.3,1.6c0,0,2.2,0,2.2-1.9c0,0,0-4.4-2.7-4.4
			C251.4,226.4,249.7,226.2,249.8,226.8"/>
		
			<rect x="230.4" y="235.1" transform="matrix(0.9018 -0.4322 0.4322 0.9018 -78.2569 127.2527)" class="st11" width="20.8" height="1.4"/>
		
			<rect x="262.5" y="225.4" transform="matrix(0.4324 -0.9017 0.9017 0.4324 -63.2444 371.1316)" class="st11" width="1.4" height="20.8"/>
		<path class="st11" d="M278,228.9c0,0-10.2-50.4-18.1-61.6l17.1-10.5c0,0,3.9,29.4,10.7,39.7c0,0,15.1-32.3,16.6-51.2l18.8-6.5
			c0,0-23.2,61.1-23.3,80.3L278,228.9z"/>
		<path class="st11" d="M181.1,203.7c0,0,3.6-50.2,0-64h21.6c0,0,0.4,27.3,7,43.8c0,0,8.1-18.5,7.2-34.2h21.6c0,0-2.7,45.6,0,73.5
			h-14.3c0,0,3.3-37.4,0-50.6c0,0-8.5,21-8.7,31.6h-11.3c0,0-2.3-20.9-8.7-31.6c0,0-2.3,17.5,0,31.6H181.1z"/>
		<path class="st11" d="M461.8,199.8c-0.2-0.5-0.4-1.1-0.6-1.6C461.3,198.7,461.6,199.2,461.8,199.8"/>
		<path class="st11" d="M465.3,207.8c-0.5-1.1-1.1-2.1-1.6-3.2C464.3,205.7,464.8,206.7,465.3,207.8"/>
		<path class="st11" d="M463.1,203.1c-0.2-0.5-0.5-1.1-0.7-1.7C462.6,202,462.9,202.5,463.1,203.1"/>
		<path class="st11" d="M460.5,196.3c-0.2-0.5-0.3-1-0.5-1.5C460.2,195.3,460.4,195.8,460.5,196.3"/>
		<path class="st11" d="M608.6,207.3c-0.6,1.2-1.2,2.3-1.8,3.4C607.4,209.6,608,208.5,608.6,207.3"/>
		<path class="st11" d="M476.1,223.8c-2.5-2.9-4.8-6-6.9-9.2C471.3,217.8,473.6,220.9,476.1,223.8"/>
		<path class="st11" d="M467,210.9c-0.4-0.6-0.7-1.3-1.1-1.9C466.3,209.6,466.6,210.2,467,210.9"/>
		<path class="st11" d="M596.7,224.8c-0.7,0.7-1.3,1.4-2,2.1C595.4,226.2,596,225.5,596.7,224.8"/>
		<path class="st11" d="M468.8,213.8c-0.4-0.6-0.8-1.3-1.2-2C468,212.5,468.4,213.2,468.8,213.8"/>
		<path class="st11" d="M599,222.2c-0.5,0.6-1.1,1.3-1.6,1.9C597.9,223.4,598.4,222.8,599,222.2"/>
		<path class="st11" d="M476.2,223.9c2.6,3,5.5,5.9,8.6,8.5l0,0C481.7,229.8,478.9,226.9,476.2,223.9"/>
		<path class="st11" d="M581.4,238.1c4.7-3.1,9-6.8,12.9-10.8C590.4,231.3,586.1,234.9,581.4,238.1L581.4,238.1z"/>
		<path class="st11" d="M604.8,214.1c-0.7,1.1-1.4,2.2-2.1,3.2C603.4,216.2,604.1,215.2,604.8,214.1"/>
		<path class="st12" d="M603.4,207.8c0-0.3,0.1-0.5,0.1-0.8c0.2-0.1,0.5-0.1,0.7-0.2v-9.4c0.3-0.1,0.5-0.2,0.8-0.2
			c0-0.1,0.1-0.2,0.1-0.3c0-1.5,0-3.1,0-4.6c0-0.3-0.1-0.7,0.3-0.8c0.1,0,0.2-0.3,0.2-0.5c0-0.4,0-0.8,0-1.2
			c0.3-0.1,0.5-0.2,0.7-0.3c0-0.6,0.1-1.1,0.1-1.7c0.4-0.1,0.7-0.1,1-0.2c0-0.5,0.1-1,0.1-1.5h1.2c0,0.3,0.1,0.6,0.1,1.1
			c0.5,0,1.1,0,1.6,0c0.8,0,1.5,0,2.3,0c1.2,0.1,2.1,0.7,2.5,1.6c-1.5,6.5-3.7,12.7-6.6,18.5c5.5-10.8,8.6-23.1,8.6-36
			c0-44.3-36-80.3-80.3-80.3c-44.3,0-80.3,36-80.3,80.3c0,7,0.9,13.8,2.6,20.3c0,0,0,0,0,0v-4.1c0.3-0.1,0.6-0.1,1-0.1v-5.8
			c0.3-0.1,0.6-0.1,0.8-0.2v-3.7c0.3-0.1,0.6-0.2,0.9-0.3c0-0.6,0.1-1.1,0.1-1.8c0.4,0,0.7-0.1,1.1-0.1v-8.3
			c0.4-0.1,0.8-0.1,1.2-0.2c0-3.7,0-7.5,0-11.4c0.3,0.2,0.5,0.3,0.5,0.4c0.1,0.2,0,0.5,0,0.8c0,3,0,6,0,9v1.1c0.3,0.1,0.6,0.1,1,0.2
			v8.3c0.4,0.1,0.7,0.1,1.1,0.2c0,0.6,0.1,1.2,0.1,1.8c0.4,0,0.7,0.1,1.2,0.1c0,0.2,0.1,0.5,0.1,0.7c0,0.8,0,1.6,0,2.4
			c0,0.4-0.1,0.9,0.5,1c0.1,0,0.2,0.5,0.2,0.7c0,1.5,0,2.9,0,4.4c0,0.3,0,0.6,0.1,1c0.9-0.9,1.6-1.8,2.2-2.8
			c0.1-0.2,0.1-0.4,0.1-0.7c0-3,0-5.9,0-8.9c0-0.7,0-1.3,0-2c0-0.5,0-0.9,0-1.4c0.4,0,0.8-0.1,1.2-0.1c0-1.9,0-3.8,0-5.6
			c0-1.9,0-3.9,0-5.8v-5.8h3.9v-1.2c0-2.3,0-4.6,0-7c0-0.5,0.1-0.9,0.5-1.3c0.5-0.6,1-1.2,1.6-1.7c0.5-0.5,0.7-1.1,0.7-1.8
			c0-0.3,0-0.6,0-0.9c0.3,0,0.5-0.1,0.8-0.1c0.4,0,0.7-0.1,1.1-0.3c0.2-0.2,0.6-0.3,1-0.4c0-0.3,0.1-0.7,0.1-1.2
			c0.3,0,0.5,0,0.8-0.1c0.1,0.4,0.1,0.8,0.2,1.2c0.6,0,1.1,0.1,1.7,0.1c0,0.3,0.1,0.6,0.1,0.9c0.3,0.1,0.7,0.1,1,0.2
			c0,0.1,0.1,0.1,0.1,0.2c-0.2,1.4,0.5,2.4,1.3,3.3c0.7,0.8,1,1.7,1,2.8c-0.1,2,0,4.1,0,6.1v1.2c1.3,0.2,2.5,0,3.9,0.1
			c0.1,1.1,0,2.2,0,3.3c0,1.1,0,2.3,0,3.4v3.3v3.3v3.4v3.4h2v-13.3h0.9v7c0.4,0,0.6,0.1,1,0.1c0.1-0.4,0.1-0.8,0.2-1.2
			c0.4-0.1,0.7-0.1,1.1-0.2v-7.6h3.7V146h2.1v13.5h3.7c0.1,2.6,0,5,0.1,7.5c0.4,0.1,0.7,0.1,1,0.1c0.1,0.2,0.2,0.5,0.3,0.8
			c0.2,0,0.4,0,0.8,0v-6.4c0.4,0,0.7,0,1.1-0.1v41.5h2.8v-11.4c0.8,0,1.6-0.1,2.5-0.1c0-2.9,0-5.8,0-8.7c0-2.9,0-5.9,0-8.8v-8.7
			v-8.8c0.2-0.1,0.5-0.2,0.7-0.4c0-0.4,0-0.9,0.1-1.5c0.3-0.1,0.6-0.1,1-0.2c0-0.2,0.1-0.4,0.1-0.5c-0.1-0.6,0.2-1,0.5-1.4
			c0.7-0.8,1.3-1.7,1.8-2.7c0.2-0.3,0.1-0.6,0.1-0.9c0-1.8,0-3.6,0-5.4v-1c0.1,0,0.2-0.1,0.2-0.1c0.1,0.1,0.3,0.3,0.3,0.4
			c0.1,0.4,0,0.7,0,1.1c0,1.7,0,3.4,0,5.1c0,0.5,0.1,0.9,0.4,1.3c0.6,0.8,1.3,1.7,1.8,2.5c0.3,0.4,0.3,1,0.4,1.6
			c0.2,0,0.5,0.1,0.8,0.2c0,0.5,0.1,1,0.1,1.6c0.4,0,0.7,0.1,1.2,0.1v35.5c0.7,0,1.2,0.1,1.9,0.1v10h1.7c0.1-1,0-2.1,0.1-3.1
			c0-1,0-2,0-3v-3.1c1.1-0.3,1.2-0.3,1.8,0.6c0.2,0.4,0.5,0.7,0.7,1h7.4v-17.9c0.5,0,0.9-0.1,1.4-0.1c0-0.3,0-0.7,0-1
			c0-2.8,0-5.6,0-8.3c0-0.5,0.1-1,0.3-1.4c0.2-0.6,0.6-1.2,0.9-1.8c0.4-0.7,0.8-1.4,0.6-2.3c0.2-0.1,0.4-0.2,0.7-0.3v-2.9
			c0.2,0,0.3-0.1,0.4-0.1c0.1,0,0.3,0,0.4,0c0,0.1,0.1,0.2,0.1,0.3c0,0.7,0,1.3,0,2c0,0.5-0.2,1,0.4,1.4c0.1,0.1,0.1,0.5,0.2,0.8
			c0.4,0,0.7,0.1,1,0.1c0.1,0.1,0.1,0.1,0.1,0.2c-0.1,1,0.3,1.8,1.1,2.3c0.4,0.3,0.5,0.7,0.5,1.2c0,3,0,6.1,0,9.1
			c0,0.4-0.1,0.8,0.4,0.9c0.1,0,0.1,0.3,0.1,0.4c0,0.3,0,0.5,0,0.8c0,6,0,12,0,17.9v1.2h1.3c0-0.3,0-0.7,0-1c0-4.4,0-8.8,0-13.2
			c0-0.7,0.2-1.2,0.7-1.7c0.8-0.7,1.5-1.4,2.2-2.2c0.4-0.5,0.9-0.6,1.5-0.6c1.1,0,2.3,0,3.4,0h1.1c0.1-1.3,0-2.5,0-3.8
			c0-1.2,0-2.5,0-3.7v-3.8v-3.7v-3.7v-3.7V152v-3.8v-3.7v-3.7c0.3-0.1,0.6-0.1,0.9-0.2v-7.2h3.3v-5.2c0.3-0.1,0.6-0.2,0.9-0.3
			c0-0.3,0-0.6,0-0.9c0-0.8,0.2-1.5,0.9-2c0.2-0.1,0.3-0.3,0.3-0.5c0.2-1.2,0.8-2.1,2-2.5v-14.4c0.3,0,0.5,0,0.8-0.1v14.5
			c1.3,0.6,1.8,1.6,2,2.9c0,0.2,0.1,0.4,0.2,0.5c0.5,0.5,0.6,1.2,0.6,1.9c0,0.3-0.2,0.8,0.4,0.9c0.1,0,0.2,0.4,0.2,0.7c0,1,0,2,0,3
			c0.5,0.1,0.9,0.1,1.4,0.2v2.9h2.2v-2.4c0.4,0,0.6-0.1,1-0.1c0.1,0.2,0.1,0.4,0.1,0.6c0,1.5,0,3,0,4.5c0,0.9,0,1.8,0,2.8
			c0.4,0.1,0.7,0.1,1.1,0.2v37.7c2.1,0.1,4.1,0,6.3,0c0,3.5,0,7,0,10.5c0,3.5,0,6.9,0,10.5c0.3,0,0.6,0,0.9,0.1v-4.8
			c0.3-0.1,0.5-0.2,0.8-0.3v-2.1c-0.2-0.1-0.4-0.1-0.7-0.2v-0.8c0.4,0,0.8-0.1,1.2-0.1c0,0,0,0,0.1-0.1c0,0,0,0,0.1-0.1
			c0-0.1,0-0.1,0-0.2c0-0.1,0-0.1,0-0.2c0-12.1,0-24.1,0-36.2c0,0,0-0.1,0-0.1c0.3-0.1,0.5-0.1,1-0.2c0-3.2,0-6.5,0-9.8
			c0.3-0.1,0.5-0.2,0.7-0.3c0-0.5,0-0.9,0.1-1.5c0.6-0.1,0.7-0.6,0.6-1.1c0-1.2,0-2.3,0-3.6c0.3-0.1,0.5-0.1,0.9-0.2V135
			c0.3-0.1,0.5-0.2,0.7-0.3c0.2-0.9,0.4-1.8,0.7-2.7c0.1-0.4,0.3-0.9,0.7-1.2c0.5-0.4,0.5-0.8,0.5-1.3c0-2.9,0-5.9,0-8.8v-1.1h0.7
			c0,0.2,0.1,0.4,0.1,0.6c0,3.1,0,6.3,0,9.4c0,0.6,0,1.1,0.4,1.5c0.2,0.3,0.3,0.6,0.4,1c0.3,1,0.6,2,0.7,3c0.1,0.7,0,1.4,0,2.2
			c0.3,0.1,0.5,0.2,0.8,0.3v4.4c0.3,0.1,0.6,0.2,0.8,0.2c0,0.5,0.1,1,0.1,1.6c0.3,0.1,0.6,0.1,0.9,0.2v1.1c0,2.6,0,5.3,0,7.9
			c0,0.4-0.1,0.9,0.5,1c0.1,0,0.2,0.3,0.2,0.4c0,0.3,0,0.6,0,0.9c0,11.4,0,22.9,0,34.3v1.3h1.8c0,0.4,0.1,0.6,0.1,0.9
			c-0.4,0.1-0.7,0.1-1,0.2v2.2c0.4,0,0.8,0.1,1.3,0.1v4c0.3,0.1,0.6,0.1,1,0.2v9.6c0.6,0,1.2,0.1,1.8,0.1v11.2c0,0,0,0,0,0
			c0.5-0.7,1.1-1.5,1.6-2.2v-9.2C602.9,208,603.2,207.9,603.4,207.8"/>
		<path class="st11" d="M606.8,210.7c-0.6,1.1-1.3,2.2-2,3.3C605.5,213,606.1,211.9,606.8,210.7"/>
		<path class="st13" d="M604.8,214.1C604.8,214.1,604.8,214.1,604.8,214.1C604.8,214.1,604.8,214.1,604.8,214.1"/>
		<polyline class="st13" points="602.6,217.3 602.6,217.3 602.6,217.3 		"/>
		<path class="st13" d="M608.6,207.3C608.6,207.3,608.6,207.3,608.6,207.3C608.6,207.3,608.6,207.3,608.6,207.3"/>
		<path class="st13" d="M606.8,210.7C606.8,210.7,606.8,210.7,606.8,210.7C606.8,210.7,606.8,210.7,606.8,210.7"/>
	</g>
	<rect class="st14" width="792" height="612"/>
	<g class="st1">
		<defs>
			<rect id="SVGID_19_" width="792" height="612"/>
		</defs>
		<clipPath id="SVGID_20_">
			<use xlink:href="#SVGID_19_"  style="overflow:visible;"/>
		</clipPath>
		<g class="st15">
			<defs>
				<rect id="SVGID_21_" width="792" height="612"/>
			</defs>
			<clipPath id="SVGID_22_">
				<use xlink:href="#SVGID_21_"  style="overflow:visible;"/>
			</clipPath>
			<g class="st16">
				<g>
					<defs>
						<rect id="SVGID_23_" x="602" y="186" width="14" height="32"/>
					</defs>
					<clipPath id="SVGID_24_">
						<use xlink:href="#SVGID_23_"  style="overflow:visible;"/>
					</clipPath>
					<g class="st17">
						<defs>
							<rect id="SVGID_25_" x="602.6" y="186.1" width="12.6" height="31.2"/>
						</defs>
						<clipPath id="SVGID_26_">
							<use xlink:href="#SVGID_25_"  style="overflow:visible;"/>
						</clipPath>
						<path class="st18" d="M604.8,214.1C604.8,214.1,604.8,214.1,604.8,214.1c0.7-1.1,1.4-2.2,2-3.3c0,0,0,0,0,0
							c0.6-1.1,1.2-2.3,1.8-3.4c0,0,0,0,0,0c2.9-5.8,5.1-12,6.6-18.5c-0.4-1-1.3-1.6-2.5-1.6c-0.8,0-1.5,0-2.3,0c-0.5,0-1.1,0-1.6,0
							c-0.1-0.5-0.1-0.8-0.1-1.1h-1.2c0,0.5-0.1,1-0.1,1.5c-0.3,0.1-0.7,0.1-1,0.2c0,0.6-0.1,1.1-0.1,1.7c-0.2,0.1-0.4,0.2-0.7,0.3
							c0,0.4,0,0.8,0,1.2c0,0.2-0.1,0.5-0.2,0.5c-0.4,0.2-0.3,0.5-0.3,0.8c0,1.5,0,3.1,0,4.6c0,0.1,0,0.2-0.1,0.3
							c-0.2,0.1-0.5,0.2-0.8,0.2v9.3c-0.3,0.1-0.5,0.1-0.7,0.2c0,0.3-0.1,0.6-0.1,0.8c-0.3,0.1-0.5,0.2-0.8,0.3v9.2l0,0
							C603.4,216.2,604.1,215.2,604.8,214.1"/>
					</g>
				</g>
			</g>
			<path class="st19" d="M469.2,214.6c-0.2-0.2-0.3-0.5-0.5-0.7C468.9,214.1,469.1,214.3,469.2,214.6"/>
			<path class="st19" d="M476.2,223.9c0,0-0.1-0.1-0.1-0.1C476.2,223.8,476.2,223.9,476.2,223.9"/>
			<path class="st19" d="M594.7,226.9c-0.1,0.1-0.2,0.2-0.3,0.3C594.5,227.2,594.6,227.1,594.7,226.9"/>
			<path class="st19" d="M601.1,219.5c-0.7,0.9-1.4,1.8-2.1,2.7C599.7,221.3,600.4,220.4,601.1,219.5"/>
			<path class="st19" d="M597.3,224.1c-0.2,0.2-0.4,0.5-0.6,0.7C596.9,224.6,597.1,224.3,597.3,224.1"/>
			<path class="st19" d="M460,194.8c-0.3-1.1-0.6-2.1-0.9-3.2C459.4,192.6,459.7,193.7,460,194.8"/>
			<path class="st19" d="M463.8,204.6c-0.2-0.5-0.5-1-0.7-1.5C463.3,203.6,463.6,204.1,463.8,204.6"/>
			<path class="st19" d="M461.2,198.1c-0.2-0.6-0.4-1.2-0.6-1.8C460.7,196.9,460.9,197.5,461.2,198.1"/>
			<path class="st19" d="M462.4,201.4c-0.2-0.5-0.4-1.1-0.7-1.6C462,200.3,462.2,200.9,462.4,201.4"/>
			<path class="st19" d="M467.6,211.9c-0.2-0.3-0.4-0.7-0.6-1C467.2,211.2,467.4,211.5,467.6,211.9"/>
			<path class="st19" d="M465.9,208.9c-0.2-0.4-0.4-0.8-0.6-1.1C465.5,208.2,465.7,208.6,465.9,208.9"/>
		</g>
	</g>
	<g class="st1">
		<defs>
			<rect id="SVGID_27_" width="792" height="612"/>
		</defs>
		<clipPath id="SVGID_28_">
			<use xlink:href="#SVGID_27_"  style="overflow:visible;"/>
		</clipPath>
		<g class="st20">
			<defs>
				<rect id="SVGID_29_" width="792" height="612"/>
			</defs>
			<clipPath id="SVGID_30_">
				<use xlink:href="#SVGID_29_"  style="overflow:visible;"/>
			</clipPath>
			<g class="st21">
				<g>
					<defs>
						<rect id="SVGID_31_" x="459" y="107" width="143" height="145"/>
					</defs>
					<clipPath id="SVGID_32_">
						<use xlink:href="#SVGID_31_"  style="overflow:visible;"/>
					</clipPath>
					<g class="st22">
						<defs>
							<rect id="SVGID_33_" x="459.1" y="107.4" width="142" height="144.3"/>
						</defs>
						<clipPath id="SVGID_34_">
							<use xlink:href="#SVGID_33_"  style="overflow:visible;"/>
						</clipPath>
						<path class="st23" d="M601.1,208.3c-0.6,0-1.1-0.1-1.8-0.1v-9.6c-0.4-0.1-0.6-0.1-1-0.2v-4c-0.5,0-0.8-0.1-1.3-0.1V192
							c0.3-0.1,0.7-0.1,1-0.2c0-0.3-0.1-0.6-0.1-0.9h-1.8v-1.3c0-11.4,0-22.9,0-34.3c0-0.3,0-0.6,0-0.9c0-0.1-0.1-0.4-0.2-0.4
							c-0.6-0.2-0.5-0.6-0.5-1c0-2.6,0-5.3,0-7.9V144c-0.4-0.1-0.6-0.1-0.9-0.2c0-0.6-0.1-1.1-0.1-1.6c-0.3-0.1-0.5-0.1-0.8-0.2
							v-4.4c-0.3-0.1-0.5-0.2-0.8-0.3c0-0.8,0.1-1.5,0-2.2c-0.2-1-0.5-2-0.7-3c-0.1-0.3-0.2-0.7-0.4-1c-0.4-0.5-0.4-1-0.4-1.5
							c0-3.1,0-6.3,0-9.4c0-0.2,0-0.4-0.1-0.6h-0.7v1.1c0,2.9,0,5.9,0,8.8c0,0.5,0,0.9-0.5,1.3c-0.3,0.3-0.5,0.7-0.7,1.2
							c-0.3,0.9-0.4,1.8-0.7,2.7c-0.2,0.1-0.4,0.2-0.7,0.3v2.3c-0.3,0.1-0.6,0.1-0.9,0.2c0,1.2,0,2.4,0,3.6c0,0.6-0.1,1-0.6,1.1
							c0,0.6,0,1-0.1,1.5c-0.3,0.1-0.5,0.2-0.7,0.3c0,3.3,0,6.6,0,9.8c-0.4,0.1-0.7,0.2-1,0.2c0,0.1,0,0.1,0,0.1
							c0,12.1,0,24.1,0,36.2c0,0.1,0,0.1,0,0.2c0,0.1,0,0.1,0,0.2c0,0,0,0.1-0.1,0.1c0,0,0,0-0.1,0.1c-0.4,0-0.8,0.1-1.2,0.1v0.8
							c0.3,0.1,0.5,0.2,0.7,0.2v2.1c-0.3,0.1-0.5,0.2-0.8,0.3v4.8c-0.3,0-0.6,0-0.9-0.1c0-3.5,0-7,0-10.5c0-3.5,0-7,0-10.5
							c-2.2,0-4.2,0-6.3,0v-37.7c-0.4-0.1-0.7-0.1-1.1-0.2c0-0.9,0-1.9,0-2.8c0-1.5,0-3,0-4.5c0-0.2-0.1-0.4-0.1-0.6
							c-0.3,0-0.6,0.1-1,0.1v2.4h-2.2v-2.9c-0.5-0.1-0.9-0.1-1.4-0.2c0-1,0-2,0-3c0-0.2-0.1-0.7-0.2-0.7c-0.6-0.1-0.4-0.6-0.4-1
							c0-0.7-0.1-1.4-0.6-1.9c-0.1-0.1-0.2-0.3-0.2-0.5c-0.1-1.3-0.7-2.3-2-2.9v-14.5c-0.3,0-0.5,0-0.8,0.1v14.4
							c-1.2,0.5-1.8,1.4-2,2.5c0,0.2-0.2,0.4-0.3,0.5c-0.7,0.5-1,1.2-0.9,2c0,0.3,0,0.6,0,0.9c-0.3,0.1-0.5,0.2-0.9,0.3v5.2h-3.3
							v7.2c-0.3,0.1-0.6,0.1-0.9,0.2v3.7v3.7v3.8v3.7v3.7v3.7v3.7v3.8c0,1.2,0,2.5,0,3.7c0,1.2,0,2.5,0,3.8h-1.1c-1.1,0-2.3,0-3.4,0
							c-0.6,0-1,0.1-1.5,0.6c-0.7,0.8-1.4,1.5-2.2,2.2c-0.5,0.5-0.7,1-0.7,1.7c0,4.4,0,8.8,0,13.2c0,0.3,0,0.7,0,1h-1.3v-1.2
							c0-6,0-12,0-17.9c0-0.3,0-0.5,0-0.8c0-0.2-0.1-0.4-0.1-0.4c-0.6-0.1-0.4-0.6-0.4-0.9c0-3,0-6.1,0-9.1c0-0.5,0-0.9-0.5-1.2
							c-0.8-0.6-1.2-1.3-1.1-2.3c0,0-0.1-0.1-0.1-0.2c-0.3,0-0.7-0.1-1-0.1c-0.1-0.3,0-0.7-0.2-0.8c-0.6-0.3-0.4-0.9-0.4-1.4
							c0-0.7,0-1.3,0-2c0-0.1-0.1-0.2-0.1-0.3c-0.1,0-0.3-0.1-0.4,0c-0.1,0-0.2,0-0.4,0.1v2.9c-0.3,0.1-0.5,0.2-0.7,0.3
							c0.1,0.9-0.2,1.6-0.6,2.3c-0.3,0.6-0.6,1.2-0.9,1.8c-0.2,0.4-0.3,0.9-0.3,1.4c0,2.8,0,5.6,0,8.3c0,0.3,0,0.7,0,1
							c-0.5,0-0.9,0.1-1.4,0.1v17.9h-7.4c-0.2-0.3-0.5-0.7-0.7-1c-0.6-0.9-0.7-0.9-1.8-0.6v3.1c0,1,0,2,0,3c0,1,0.1,2.1-0.1,3.1H527
							v-10c-0.7,0-1.2-0.1-1.9-0.1v-35.5c-0.4-0.1-0.8-0.1-1.2-0.1c0-0.6-0.1-1.1-0.1-1.6c-0.4-0.1-0.7-0.2-0.8-0.2
							c-0.2-0.6-0.2-1.1-0.4-1.6c-0.5-0.9-1.2-1.7-1.8-2.5c-0.3-0.4-0.4-0.8-0.4-1.3c0-1.7,0-3.4,0-5.1c0-0.4,0-0.7,0-1.1
							c0-0.1-0.2-0.3-0.3-0.4c-0.1,0-0.1,0.1-0.2,0.1v1c0,1.8,0,3.6,0,5.4c0,0.3,0,0.7-0.1,0.9c-0.6,0.9-1.2,1.8-1.8,2.7
							c-0.4,0.4-0.6,0.8-0.5,1.4c0,0.2,0,0.4-0.1,0.5c-0.4,0.1-0.7,0.1-1,0.2c0,0.6-0.1,1-0.1,1.5c-0.3,0.1-0.5,0.2-0.7,0.4v8.8v8.7
							c0,2.9,0,5.9,0,8.8c0,2.9,0,5.8,0,8.7c-0.9,0-1.7,0.1-2.5,0.1v11.4H510v-41.5c-0.4,0-0.7,0-1.1,0.1v6.4c-0.3,0-0.6,0-0.8,0
							c-0.1-0.3-0.2-0.6-0.3-0.8c-0.3-0.1-0.6-0.1-1-0.2c-0.1-2.5,0-4.9-0.1-7.5h-3.7V146h-2.1v13.6h-3.7v7.6
							c-0.4,0.1-0.8,0.1-1.1,0.2c-0.1,0.4-0.1,0.8-0.2,1.2c-0.3,0-0.6-0.1-1-0.1v-7h-0.9v13.3h-2v-3.4V168v-3.3v-3.3
							c0-1.1,0-2.3,0-3.4c0-1.1,0.1-2.2,0-3.3c-1.3-0.1-2.6,0-3.9-0.1v-1.2c0-2-0.1-4.1,0-6.1c0-1.1-0.2-2-1-2.8
							c-0.9-0.9-1.6-1.9-1.3-3.3c0,0-0.1-0.1-0.1-0.2c-0.3-0.1-0.7-0.1-1-0.2c-0.1-0.3-0.1-0.6-0.1-0.9c-0.6,0-1.1-0.1-1.7-0.1
							c-0.1-0.4-0.1-0.8-0.2-1.2c-0.3,0-0.6,0-0.8,0.1c0,0.4-0.1,0.8-0.1,1.2c-0.4,0.1-0.8,0.2-1,0.4c-0.3,0.3-0.7,0.4-1.1,0.3
							c-0.2,0-0.5,0.1-0.8,0.1c0,0.4,0,0.7,0,0.9c0.1,0.7-0.1,1.3-0.7,1.8c-0.6,0.5-1,1.2-1.6,1.7c-0.4,0.4-0.5,0.8-0.5,1.3
							c0,2.3,0,4.6,0,7v1.2h-3.9v5.8c0,1.9,0,3.9,0,5.8c0,1.9,0,3.8,0,5.6c-0.5,0-0.8,0.1-1.2,0.1c0,0.5,0,0.9,0,1.4
							c0,0.7,0,1.3,0,2c0,3,0,5.9,0,8.9c0,0.2,0,0.5-0.1,0.7c-0.6,1-1.3,1.9-2.2,2.8c-0.1-0.4-0.1-0.7-0.1-1c0-1.5,0-2.9,0-4.4
							c0-0.2-0.1-0.7-0.2-0.7c-0.6-0.2-0.5-0.6-0.5-1c0-0.8,0-1.6,0-2.4c0-0.2-0.1-0.5-0.1-0.7c-0.4,0-0.8-0.1-1.2-0.1
							c0-0.6-0.1-1.2-0.1-1.8c-0.4-0.1-0.7-0.1-1.1-0.2v-8.3c-0.4-0.1-0.6-0.1-1-0.2v-1.1c0-3,0-6,0-9c0-0.3,0-0.5,0-0.8
							c0-0.1-0.2-0.2-0.5-0.4c0,3.9,0,7.7,0,11.4c-0.5,0.1-0.8,0.1-1.2,0.2v8.3c-0.4,0-0.7,0.1-1.1,0.1c0,0.6-0.1,1.2-0.1,1.8
							c-0.3,0.1-0.6,0.2-0.9,0.3v3.7c-0.3,0.1-0.5,0.1-0.8,0.2v5.8c-0.4,0.1-0.6,0.1-1,0.1v4.1c0,0,0,0,0,0c0.3,1.1,0.6,2.1,0.9,3.2
							c0.2,0.5,0.3,1,0.5,1.5c0.2,0.6,0.4,1.2,0.6,1.8c0.2,0.5,0.4,1.1,0.6,1.6c0.2,0.6,0.4,1.1,0.6,1.6c0.2,0.6,0.4,1.1,0.7,1.7
							c0.2,0.5,0.5,1,0.7,1.5c0.5,1.1,1,2.2,1.6,3.2c0.2,0.4,0.4,0.8,0.6,1.1c0.3,0.6,0.7,1.3,1.1,1.9c0.2,0.3,0.4,0.7,0.6,1
							c0.4,0.7,0.8,1.3,1.2,2c0.2,0.2,0.3,0.5,0.5,0.7c2.1,3.2,4.4,6.3,6.9,9.2c0,0,0.1,0.1,0.1,0.1c2.6,3,5.5,5.9,8.6,8.5l0,0
							c14,12,32.2,19.2,52.1,19.2c16.5,0,31.8-5,44.6-13.5l-0.1,0c4.7-3.1,9.1-6.8,13-10.8c0.1-0.1,0.2-0.2,0.3-0.3
							c0.7-0.7,1.3-1.4,2-2.1c0.2-0.2,0.4-0.5,0.6-0.7c0.6-0.6,1.1-1.3,1.6-1.9c0.7-0.9,1.4-1.8,2.1-2.7c0,0,0,0,0,0V208.3z"/>
					</g>
				</g>
			</g>
			<path class="st24" d="M536.8,300.9c-34.1,0-66.1-13-90.5-36.9c-25.2-24.6-39-57.5-39-92.7c0-71.4,58.1-129.6,129.6-129.6
				c35.2,0,68.1,13.9,92.7,39c24.6,25.2,37.7,58.4,36.8,93.6c-0.8,33.2-14.3,64.6-38,88.4c-23.7,23.7-55.1,37.2-88.4,38
				C538.9,300.9,537.9,300.9,536.8,300.9 M536.9,49.4c-67.2,0-121.9,54.7-121.9,121.9c0,33.1,13,64.1,36.7,87.2
				c23.7,23.1,54.9,35.4,88.1,34.6c31.3-0.7,60.8-13.4,83.1-35.8c22.3-22.3,35-51.9,35.8-83.1c0.8-33.1-11.5-64.4-34.6-88.1
				C600.9,62.5,569.9,49.4,536.9,49.4"/>
			<path class="st25" d="M429.8,171.3c0-2.6,2.1-4.7,4.7-4.7c2.6,0,4.7,2.1,4.7,4.7s-2.1,4.7-4.7,4.7
				C431.9,176,429.8,173.9,429.8,171.3"/>
			<path class="st25" d="M635.5,171.3c0-2.6,2.1-4.7,4.7-4.7c2.6,0,4.7,2.1,4.7,4.7s-2.1,4.7-4.7,4.7
				C637.6,176,635.5,173.9,635.5,171.3"/>
			<polygon class="st24" points="465.8,112.5 459.6,109.9 466.7,116 463.8,119.5 447.8,105.7 450.8,102.3 460.4,106.6 454.7,97.8 
				457.6,94.3 473.6,108.1 470.7,111.5 463.5,105.3 467,111.1 			"/>
			<path class="st24" d="M481.1,98.8l1.1,2l-3.6,2.7l-9.2-19.4l3.6-2.7L488.7,96l-3.6,2.7l-1.6-1.6L481.1,98.8z M480.7,94.2
				l-4.6-4.8l3.1,5.9L480.7,94.2z"/>
			<path class="st24" d="M495.1,82.9l3.5,7.8l-4.1,1.8l-8.6-19.2l5.5-2.4c3.7-1.6,6.2-0.8,7.7,2.5l0.7,1.5c0.6,1.3,0.8,2.5,0.5,3.5
				c0.9,0.5,1.7,1.4,2.3,2.8l2,4.4c0.3,0.7,0.8,1.4,1.3,1.9l-4.1,1.8c-0.6-0.5-1-1.1-1.3-1.9l-2-4.4c-0.4-0.9-1.1-1.2-2-0.8
				L495.1,82.9z M494.8,78.7c0.9-0.4,1.2-1.1,0.8-2l-0.7-1.5c-0.4-0.9-1.1-1.2-2-0.8l-1.4,0.6l1.9,4.3L494.8,78.7z"/>
			<polygon class="st24" points="517.2,84.3 512.8,85.1 508.7,64.5 513.1,63.6 514.3,69.7 516.1,63 520.8,62.1 517.9,72.3 
				524.9,82.7 520.2,83.7 516.2,77.1 516,77.9 			"/>
			<polygon class="st24" points="550,61.8 550,74.7 553.5,62.3 558,63 551,83.2 546.6,82.6 545.5,61.2 			"/>
			
				<rect x="556.6" y="74" transform="matrix(0.311 -0.9504 0.9504 0.311 318.2967 591.6146)" class="st24" width="21" height="4.5"/>
			<polygon class="st24" points="592.7,76.2 590.9,79.6 585.6,76.8 583.4,80.9 587.4,83 585.5,86.5 581.5,84.3 579.3,88.4 
				584.6,91.3 582.8,94.7 573.5,89.8 583.4,71.2 			"/>
			<path class="st24" d="M598.4,95.3l-5.5,6.5l-3.4-2.9l13.6-16l4.6,3.9c3.1,2.6,3.4,5.3,1.1,8l-1.1,1.3c-0.9,1.1-1.9,1.8-3,2
				c-0.1,1.1-0.6,2.2-1.5,3.3L600,105c-0.5,0.6-0.9,1.3-1.1,2l-3.4-2.9c0.2-0.7,0.6-1.4,1.1-2l3.1-3.7c0.6-0.8,0.6-1.5-0.2-2.1
				L598.4,95.3z M602.1,93.3c0.8,0.6,1.5,0.6,2.1-0.2l1.1-1.3c0.6-0.8,0.6-1.5-0.2-2.1l-1.1-1l-3,3.6L602.1,93.3z"/>
			<path class="st24" d="M608.1,113.9l-2,1.1l-2.7-3.6l19.2-9.6l2.7,3.6l-14.2,16l-2.7-3.6l1.6-1.6L608.1,113.9z M612.7,113.5
				l4.7-4.8l-5.8,3.3L612.7,113.5z"/>
			<path class="st24" d="M479.3,248.1c2.2-3.4,5-3.9,8.6-1.6c3.6,2.3,4.3,5.1,2.1,8.5l-0.8,1.3l-4-2.6l1.1-1.8
				c0.5-0.8,0.4-1.5-0.5-2.1c-0.9-0.6-1.6-0.4-2.1,0.4l-5.9,9.1c-0.5,0.8-0.4,1.5,0.5,2.1c0.9,0.6,1.6,0.4,2.1-0.4l1.1-1.8l4,2.6
				l-0.8,1.3c-2.2,3.4-5,3.9-8.6,1.6c-3.6-2.3-4.3-5.1-2.1-8.5L479.3,248.1z"/>
			<path class="st24" d="M498,259.1c1.3-3.8,4-4.9,8-3.5c4,1.4,5.3,4,4,7.8l-3.2,9.1c-1.4,3.8-4,4.9-8,3.5c-4-1.4-5.3-4-4-7.8
				L498,259.1z M499,270.4c-0.3,0.9,0,1.6,1,2c1,0.4,1.7,0.1,2-0.9l3.6-10.2c0.3-0.9,0-1.6-1-1.9c-1-0.4-1.7-0.1-2,0.9L499,270.4z"
				/>
			<polygon class="st24" points="524.2,278.8 522.8,272.1 521.8,281.5 517,281 519.2,260.1 524,260.6 526.1,270.9 530.3,261.2 
				535,261.7 532.8,282.7 528.1,282.2 529.1,272.8 526.2,279 			"/>
			<polygon class="st24" points="553.8,260.2 554.2,264.1 547.9,264.9 548.5,269.5 553.2,268.9 553.7,272.8 548.9,273.4 549.5,278 
				555.8,277.3 556.3,281.1 545.2,282.5 542.7,261.6 			"/>
			<path class="st24" d="M567.4,256.6c4-1.4,6.7-0.2,8,3.6l3,8.5c1.3,3.8,0,6.4-4,7.8l-6,2.1l-6.9-19.9L567.4,256.6z M571.6,273.3
				l1.5-0.5c1-0.4,1.3-1,1-1.9l-3.4-9.6c-0.3-0.9-1-1.2-2-0.9l-1.5,0.5L571.6,273.3z"/>
			<polygon class="st24" points="590.5,260 580.1,251.6 584.1,249 589.3,253.6 587.3,247 591.4,244.4 594.5,257.4 599,264.5 
				595,267 			"/>
			<path class="st24" d="M538.3,102.2c0-1.6,1.3-2.9,2.9-2.9s2.9,1.3,2.9,2.9c0,1.6-1.3,2.9-2.9,2.9S538.3,103.8,538.3,102.2"/>
			<path class="st24" d="M528.4,112.6c0,0-0.4,1.9,1.6,1.9l1.1-1.1c0,0,0.4-0.1,1.5-0.6l8.3-7.9l-2.6-2.9l-8.7,8.9
				c0,0-0.2,0.2-0.2,0.8L528.4,112.6z"/>
			<polygon class="st24" points="534.9,109.5 535.4,110.8 536.7,111.2 537.3,115.9 537,116.8 534.5,116.8 531.5,116.6 531.9,112.5 
							"/>
			<path class="st24" d="M528.5,113.3l-1.2,1.4c0,0,0.3,0.8,1.1,0.8l1.5-1.8L528.5,113.3z"/>
			<path class="st24" d="M536.1,229.1c-1.7-8.8-3.2-34.6-3.2-34.9c-0.1-19.6-5.6-52.8-5.7-53.1c-2.9-20.3,0.2-26.1,0.3-26.3l0.8,0.4
				l-0.4-0.2l0.4,0.2c0,0.1-3.1,5.9-0.2,25.7c0.1,0.3,5.6,33.6,5.7,53.3c0,0.2,1.5,26,3.2,34.7L536.1,229.1z"/>
			<rect x="535.1" y="115.2" class="st24" width="1.6" height="112.8"/>
			<path class="st24" d="M535,226.8c0,0-1.3,1-1.2,4.3c0,0,0.1,1.6,3.3,1.6c0,0,2.2,0,2.2-1.9c0,0,0-4.4-2.7-4.4
				C536.6,226.4,534.8,226.2,535,226.8"/>
			
				<rect x="515.6" y="235.1" transform="matrix(0.9018 -0.4322 0.4322 0.9018 -50.249 250.4884)" class="st24" width="20.8" height="1.4"/>
			
				<rect x="547.6" y="225.4" transform="matrix(0.4324 -0.9017 0.9017 0.4324 98.6083 628.246)" class="st24" width="1.4" height="20.8"/>
			<path class="st24" d="M563.1,228.9c0,0-10.2-50.4-18.1-61.6l17.1-10.5c0,0,3.9,29.4,10.7,39.7c0,0,15.1-32.3,16.6-51.2l18.8-6.5
				c0,0-23.2,61.1-23.3,80.3L563.1,228.9z"/>
			<path class="st24" d="M466.3,203.7c0,0,3.6-50.2,0-64h21.6c0,0,0.4,27.3,7,43.8c0,0,8.1-18.5,7.2-34.2h21.6c0,0-2.7,45.6,0,73.5
				h-14.3c0,0,3.3-37.4,0-50.6c0,0-8.5,21-8.7,31.6h-11.3c0,0-2.3-20.9-8.7-31.6c0,0-2.3,17.5,0,31.6H466.3z"/>
			<path class="st26" d="M143.3,444.3c0-2.6,2.1-4.8,4.8-4.8s4.8,2.1,4.8,4.8s-2.1,4.8-4.8,4.8S143.3,446.9,143.3,444.3"/>
			<path class="st26" d="M353.5,444.3c0-2.6,2.1-4.8,4.8-4.8c2.6,0,4.8,2.1,4.8,4.8s-2.1,4.8-4.8,4.8
				C355.7,449,353.5,446.9,353.5,444.3"/>
		</g>
	</g>
	<g class="st1">
		<defs>
			<rect id="SVGID_35_" width="792" height="612"/>
		</defs>
		<clipPath id="SVGID_36_">
			<use xlink:href="#SVGID_35_"  style="overflow:visible;"/>
		</clipPath>
		<g class="st27">
			<text transform="matrix(0.6518 -0.7584 0.7584 0.6518 178.0055 391.2784)" class="st28 st29 st30">!</text>
		</g>
		<g class="st27">
			<text transform="matrix(0.8064 -0.5914 0.5914 0.8064 193.8702 374.3293)" class="st28 st29 st31">&quot;</text>
		</g>
		<g class="st27">
			<text transform="matrix(0.9135 -0.4067 0.4067 0.9135 209.3242 363.7451)" class="st28 st29 st30">#</text>
		</g>
		<g class="st27">
			<text transform="matrix(0.9808 -0.1949 0.1949 0.9808 228.035 356.1895)" class="st28 st29 st31">$</text>
		</g>
		<g class="st27">
			<text transform="matrix(0.9997 -2.335034e-02 2.335034e-02 0.9997 248.2124 353.1699)" class="st28 st29 st31">%</text>
		</g>
		<g class="st27">
			<text transform="matrix(0.9901 0.1405 -0.1405 0.9901 259.5284 353.1378)" class="st28 st29 st31">&amp;</text>
		</g>
		<g class="st27">
			<text transform="matrix(0.9506 0.3105 -0.3105 0.9506 278.0934 356.6249)" class="st28 st29 st30">&apos;</text>
		</g>
		<g class="st27">
			<text transform="matrix(0.8821 0.471 -0.471 0.8821 290.1443 360.8896)" class="st28 st29 st31">(</text>
		</g>
		<g class="st27">
			<text transform="matrix(0.7626 0.6468 -0.6468 0.7626 306.3484 370.2274)" class="st28 st29 st30">#</text>
		</g>
		<g class="st27">
			<text transform="matrix(0.6093 0.7929 -0.7929 0.6093 321.2738 383.8847)" class="st28 st29 st31">&quot;</text>
		</g>
		<g class="st27">
			<text transform="matrix(0.8887 0.5727 -0.5417 0.8406 185.3659 535.9746)" class="st28 st29 st31">)</text>
		</g>
		<g class="st27">
			<text transform="matrix(0.9956 0.3555 -0.3363 0.9418 207.704 548.8341)" class="st28 st29 st30">*</text>
		</g>
		<g class="st27">
			<text transform="matrix(1.0515 0.1093 -0.1034 0.9946 232.4643 556.4307)" class="st28 st29 st31">!</text>
		</g>
		<g class="st27">
			<text transform="matrix(1.0494 -0.1284 0.1214 0.9926 261.375 557.9062)" class="st28 st29 st31">(</text>
		</g>
		<g class="st27">
			<text transform="matrix(0.9976 -0.35 0.3311 0.9436 285.0022 553.9229)" class="st28 st29 st31">+</text>
		</g>
		<g class="st27">
			<text transform="matrix(0.8919 -0.5676 0.5369 0.8436 308.8697 544.2011)" class="st28 st29 st31">,</text>
		</g>
	</g>
	<g class="st1">
		<defs>
			<rect id="SVGID_37_" width="792" height="612"/>
		</defs>
		<clipPath id="SVGID_38_">
			<use xlink:href="#SVGID_37_"  style="overflow:visible;"/>
		</clipPath>
		<g class="st32">
			<defs>
				<rect id="SVGID_39_" width="792" height="612"/>
			</defs>
			<clipPath id="SVGID_40_">
				<use xlink:href="#SVGID_39_"  style="overflow:visible;"/>
			</clipPath>
			<path class="st33" d="M255.2,505c0-0.9-0.3-4.2-2.6-4.3V388.6h0.3l0.3-0.9l-0.7-4.8l-1.3-0.4L251,382l5.7-5.5c0.1,0,0.2,0,0.3,0
				c1.6,0,2.9-1.3,2.9-2.9c0-1.6-1.3-2.9-2.9-2.9c-1.6,0-2.8,1.2-2.9,2.8l-8.9,9c0,0-0.2,0.2-0.2,0.8l-1,1c0,0-0.1,0.3,0,0.7
				l-1.2,1.3c0,0,0.1,0.1,0.2,0.3c-0.5,1-3,7.4-0.2,26.7c0.1,0.3,5.7,34.2,5.8,54.3c0,0.2,1,17.9,2.3,29.2v3.8
				c-0.1,0.1-0.2,0.2-0.2,0.3c0,0-1.3,1-1.2,4.4c0,0,0,0,0,0.1l-17.9,8.6l0.6,1.3l18.3-8.8c0.5,0.2,1.2,0.4,2.3,0.4
				c0,0,1.2,0,1.8-0.7l18.9,9.1l0.6-1.3L255.2,505z M250.9,487.9c-0.9-9.9-1.4-20.1-1.4-20.3c-0.1-20.1-5.8-54.1-5.8-54.4
				c-2.6-18.2-0.4-24.8,0.1-26.1c0.1,0,0.1,0.1,0.2,0.1l0.9-1.1c0.2,0.1,0.5,0.2,0.8,0.2l1.1-1.1c0,0,0.2-0.1,0.7-0.3l-0.3,3.5
				l3,0.2h0.7V487.9z"/>
			<path class="st33" d="M279.6,503.2c0,0-10.4-51.5-18.5-63l17.4-10.7c0,0,4,30,11,40.6c0,0,15.4-33,17-52.4l19.2-6.7
				c0,0-23.7,62.4-23.8,82.1L279.6,503.2z"/>
			<path class="st33" d="M180.5,477.4c0,0,3.7-51.3,0-65.5h22.1c0,0,0.5,27.9,7.2,44.8c0,0,8.3-18.9,7.3-35h22.1
				c0,0-2.7,46.6,0,75.1h-14.7c0,0,3.4-38.3,0-51.7c0,0-8.7,21.5-8.9,32.3h-11.6c0,0-2.3-21.3-8.9-32.3c0,0-2.4,17.9,0,32.3H180.5z"
				/>
			<path class="st33" d="M252.7,360.6c46.2,0,83.7,37.5,83.7,83.7s-37.5,83.7-83.7,83.7S169,490.5,169,444.3
				S206.5,360.6,252.7,360.6 M252.7,357.4c-47.9,0-86.8,38.9-86.8,86.8c0,47.9,39,86.8,86.8,86.8s86.8-38.9,86.8-86.8
				C339.5,396.4,300.6,357.4,252.7,357.4"/>
			<path class="st34" d="M539.6,315.7c72,0,130.2,59.2,128.5,131.6c-1.6,68.2-57.2,123.8-125.4,125.4
				c-72.4,1.7-131.6-56.5-131.6-128.5C411.1,373.3,468.6,315.7,539.6,315.7"/>
			<path class="st34" d="M455.9,444.3c0-46.2,37.5-83.7,83.7-83.7s83.7,37.5,83.7,83.7s-37.5,83.7-83.7,83.7
				S455.9,490.5,455.9,444.3"/>
		</g>
	</g>
	<g class="st1">
		<defs>
			<rect id="SVGID_41_" width="792" height="612"/>
		</defs>
		<clipPath id="SVGID_42_">
			<use xlink:href="#SVGID_41_"  style="overflow:visible;"/>
		</clipPath>
		<g class="st35">
			<defs>
				<rect id="SVGID_43_" width="792" height="612"/>
			</defs>
			<clipPath id="SVGID_44_">
				<use xlink:href="#SVGID_43_"  style="overflow:visible;"/>
			</clipPath>
			<g class="st36">
				<g>
					<defs>
						<rect id="SVGID_45_" x="457" y="375" width="166" height="155"/>
					</defs>
					<clipPath id="SVGID_46_">
						<use xlink:href="#SVGID_45_"  style="overflow:visible;"/>
					</clipPath>
					<g class="st37">
						<defs>
							<rect id="SVGID_47_" x="457.4" y="375.4" width="165.4" height="154.5"/>
						</defs>
						<clipPath id="SVGID_48_">
							<use xlink:href="#SVGID_47_"  style="overflow:visible;"/>
						</clipPath>
						<path class="st38" d="M620.1,460c-0.8,0-1.6,0-2.4,0c-0.6,0-1.1,0-1.7,0c-0.1-0.5-0.1-0.8-0.1-1.2h-1.3c0,0.6-0.1,1.1-0.1,1.6
							c-0.4,0.1-0.7,0.1-1.1,0.2c0,0.6-0.1,1.2-0.1,1.8c-0.2,0.1-0.4,0.2-0.7,0.3c0,0.4,0,0.8,0,1.2c0,0.2-0.1,0.5-0.2,0.5
							c-0.5,0.2-0.4,0.5-0.4,0.9c0,1.6,0,3.3,0,4.9c0,0.1,0,0.2-0.1,0.3c-0.3,0.1-0.5,0.2-0.8,0.3v9.9c-0.3,0.1-0.5,0.1-0.8,0.2
							c0,0.3-0.1,0.6-0.1,0.9c-0.3,0.1-0.5,0.2-0.8,0.3v9.7c6.3-8.9,10.9-19.1,13.3-30.1C622.4,460.7,621.4,460.1,620.1,460"/>
						<path class="st38" d="M605.9,472c-0.4-0.1-0.7-0.2-1-0.2v-4.2c-0.5-0.1-0.9-0.1-1.3-0.1v-2.3c0.4-0.1,0.7-0.1,1.1-0.2
							c0-0.3-0.1-0.6-0.1-1h-1.9v-1.4c0-12.1,0-24.2,0-36.4c0-0.3,0-0.6,0-0.9c0-0.2-0.1-0.4-0.2-0.4c-0.6-0.2-0.5-0.7-0.5-1.1
							c0-2.8,0-5.6,0-8.4v-1.1c-0.4-0.1-0.7-0.1-1-0.2c0-0.6-0.1-1.1-0.1-1.7c-0.3-0.1-0.5-0.1-0.9-0.2v-4.7
							c-0.3-0.1-0.6-0.2-0.9-0.3c0-0.8,0.1-1.6,0-2.3c-0.2-1.1-0.5-2.1-0.8-3.2c-0.1-0.4-0.2-0.8-0.4-1c-0.4-0.5-0.5-1-0.4-1.6
							c0-3.3,0-6.7,0-10c0-0.2,0-0.4-0.1-0.6h-0.7v1.2c0,3.1,0,6.2,0,9.4c0,0.5,0,1-0.5,1.4c-0.3,0.3-0.6,0.8-0.7,1.2
							c-0.3,0.9-0.5,1.9-0.7,2.9c-0.2,0.1-0.4,0.2-0.8,0.3v2.5c-0.3,0.1-0.6,0.2-0.9,0.2c0,1.3,0,2.5,0,3.8c0,0.6-0.1,1.1-0.7,1.2
							c0,0.6,0,1.1-0.1,1.6c-0.3,0.1-0.5,0.2-0.8,0.3c0,3.5,0,7,0,10.4c-0.4,0.1-0.7,0.2-1,0.2c0,0.1,0,0.1,0,0.1
							c0,12.8,0,25.6,0,38.3c0,0.1,0,0.1,0,0.2c0,0.1,0,0.1,0,0.2c0,0,0,0.1-0.1,0.1c0,0,0,0-0.1,0.1c-0.4,0-0.8,0.1-1.3,0.1v0.8
							c0.3,0.1,0.5,0.2,0.7,0.2v2.2c-0.3,0.1-0.5,0.2-0.8,0.3v5.1c-0.4,0-0.7,0-1-0.1c0-3.8,0-7.4,0-11.1c0-3.7,0-7.4,0-11.1
							c-2.3,0-4.4,0-6.6,0v-40c-0.4-0.1-0.7-0.1-1.2-0.2c0-1,0-2,0-2.9c0-1.6,0-3.2,0-4.8c0-0.2-0.1-0.4-0.2-0.6
							c-0.3,0-0.6,0.1-1,0.1v2.6h-2.4v-3.1c-0.6-0.1-1-0.1-1.5-0.2c0-1.1,0-2.1,0-3.2c0-0.3-0.1-0.7-0.2-0.7c-0.6-0.2-0.4-0.6-0.4-1
							c0-0.8-0.1-1.4-0.6-2c-0.1-0.1-0.2-0.4-0.2-0.6c-0.1-1.4-0.7-2.4-2.1-3v-15.3c-0.3,0-0.5,0-0.8,0.1v15.3
							c-1.3,0.5-1.9,1.4-2.1,2.7c0,0.2-0.2,0.5-0.4,0.6c-0.7,0.5-1,1.3-1,2.2c0,0.3,0,0.6,0,1c-0.3,0.1-0.6,0.2-0.9,0.3v5.5h-3.5
							v7.6c-0.3,0.1-0.6,0.1-1,0.2v4v4v4.1v3.9v3.9v3.9v4v4.1c0,1.3,0,2.6,0,3.9c0,1.3,0,2.6,0,4h-1.2c-1.2,0-2.4,0-3.6,0
							c-0.6,0-1.1,0.1-1.6,0.6c-0.7,0.8-1.5,1.6-2.4,2.3c-0.6,0.5-0.8,1-0.8,1.8c0,4.7,0,9.4,0,14c0,0.4,0,0.7,0,1.1h-1.4V469
							c0-6.3,0-12.7,0-19c0-0.3,0-0.6,0-0.8c0-0.2-0.1-0.4-0.2-0.5c-0.6-0.1-0.5-0.6-0.5-1c0-3.2,0-6.4,0-9.7c0-0.5-0.1-1-0.5-1.3
							c-0.8-0.6-1.3-1.4-1.2-2.5c0,0-0.1-0.1-0.1-0.2c-0.4,0-0.7-0.1-1.1-0.1c-0.1-0.3,0-0.7-0.2-0.8c-0.6-0.4-0.4-0.9-0.5-1.4
							c0-0.7,0-1.4,0-2.1c0-0.1-0.1-0.2-0.1-0.3c-0.1,0-0.3-0.1-0.4,0c-0.1,0-0.3,0-0.5,0.1v3.1c-0.3,0.1-0.5,0.2-0.7,0.4
							c0.1,0.9-0.3,1.7-0.7,2.5c-0.3,0.6-0.7,1.2-0.9,1.9c-0.2,0.5-0.3,1-0.3,1.5c0,2.9,0,5.9,0,8.8c0,0.4,0,0.7,0,1.1
							c-0.5,0-0.9,0.1-1.5,0.1v19h-7.8c-0.2-0.4-0.5-0.7-0.8-1.1c-0.6-0.9-0.7-1-1.9-0.6v3.3c0,1.1,0,2.1,0,3.2
							c0,1.1,0.1,2.2-0.1,3.3h-1.8v-10.6c-0.7,0-1.3-0.1-2-0.1v-37.6c-0.5-0.1-0.8-0.1-1.2-0.1c0-0.6-0.1-1.1-0.1-1.7
							c-0.4-0.1-0.7-0.2-0.9-0.2c-0.2-0.6-0.2-1.2-0.5-1.6c-0.6-0.9-1.3-1.8-1.9-2.7c-0.3-0.4-0.4-0.9-0.4-1.4c0-1.8,0-3.6,0-5.4
							c0-0.4,0-0.8,0-1.1c0-0.2-0.2-0.3-0.4-0.4c-0.1,0-0.2,0.1-0.2,0.1v1c0,1.9,0,3.8,0,5.7c0,0.3,0,0.7-0.2,1
							c-0.6,1-1.2,1.9-1.9,2.8c-0.4,0.5-0.6,0.9-0.6,1.5c0,0.2,0,0.4-0.1,0.6c-0.4,0.1-0.7,0.2-1,0.2c0,0.6-0.1,1.1-0.1,1.6
							c-0.3,0.1-0.5,0.3-0.8,0.4v9.3v9.2c0,3.1,0,6.2,0,9.4c0,3.1,0,6.1,0,9.3c-0.9,0-1.8,0.1-2.6,0.1v12.1h-3v-44
							c-0.4,0-0.7,0-1.1,0.1v6.8c-0.4,0-0.6,0-0.8,0c-0.1-0.3-0.2-0.6-0.3-0.9c-0.4-0.1-0.7-0.1-1.1-0.2c-0.1-2.6,0-5.2-0.1-7.9H504
							v-14.3h-2.2v14.4h-3.9v8.1c-0.5,0.1-0.8,0.1-1.2,0.2c-0.1,0.4-0.1,0.8-0.2,1.3c-0.4,0-0.7-0.1-1-0.1v-7.5h-1v14.1h-2.1v-3.6
							v-3.6v-3.5v-3.5c0-1.2,0-2.4,0-3.6c0-1.2,0.1-2.3,0-3.5c-1.4-0.1-2.7,0.1-4.1-0.1v-1.2c0-2.1-0.1-4.3,0-6.4
							c0-1.2-0.2-2.1-1-2.9c-0.9-1-1.6-2-1.4-3.5c0-0.1-0.1-0.1-0.1-0.2c-0.3-0.1-0.7-0.1-1-0.2c-0.1-0.4-0.1-0.7-0.2-1
							c-0.6,0-1.2-0.1-1.8-0.1c-0.1-0.5-0.1-0.9-0.2-1.3c-0.3,0-0.6,0-0.9,0.1c0,0.5-0.1,0.9-0.1,1.2c-0.4,0.1-0.8,0.2-1.1,0.4
							c-0.4,0.3-0.7,0.4-1.1,0.4c-0.3,0-0.5,0.1-0.8,0.1c0,0.4,0,0.7,0,1c0.1,0.8-0.1,1.4-0.7,2c-0.6,0.6-1.1,1.3-1.7,1.9
							c-0.4,0.4-0.5,0.8-0.5,1.4c0,2.5,0,4.9,0,7.4v1.3h-4.2v6.2c0,2,0,4.1,0,6.1c0,2,0,4,0,6c-0.5,0.1-0.8,0.1-1.3,0.1
							c0,0.5,0,1,0,1.5c0,0.7,0,1.4,0,2.1c0,3.1,0,6.3,0,9.4c0,0.2,0,0.5-0.1,0.7c-0.6,1.1-1.4,2.1-2.3,3c-0.1-0.4-0.1-0.7-0.1-1
							c0-1.6,0-3.1,0-4.7c0-0.3-0.1-0.7-0.2-0.7c-0.6-0.2-0.5-0.7-0.5-1.1c0-0.8,0-1.7,0-2.5c0-0.3-0.1-0.5-0.1-0.8
							c-0.5-0.1-0.8-0.1-1.2-0.1c0-0.7-0.1-1.3-0.1-1.9c-0.4-0.1-0.7-0.1-1.1-0.2v-8.8c-0.4-0.1-0.7-0.2-1-0.2v-1.2
							c0-3.2,0-6.4,0-9.6c0-0.3,0-0.6,0-0.8c0-0.1-0.3-0.2-0.6-0.5c0,4.2,0,8.1,0,12.1c-0.5,0.1-0.9,0.1-1.3,0.2v8.8
							c-0.4,0.1-0.8,0.1-1.2,0.1c0,0.7-0.1,1.3-0.1,1.9c-0.3,0.1-0.6,0.2-0.9,0.3v3.9c-0.3,0.1-0.6,0.1-0.9,0.2v6.2
							c-0.4,0.1-0.7,0.1-1,0.2v4.4c4.5,17.1,14.1,32.1,27.2,43.3l-2.1-0.1l14.3,11.4l24.1,8.5l19.8,2.2l20.2-1.7l19.5-8.3l9.2-5.5
							l-2.7-0.5c8-5.4,15.1-12,20.9-19.7v-11.9c-0.6-0.1-1.2-0.1-1.9-0.1V472z"/>
					</g>
				</g>
			</g>
			<path class="st39" d="M430.2,444.3c0-2.6,2.1-4.8,4.8-4.8c2.6,0,4.8,2.1,4.8,4.8s-2.1,4.8-4.8,4.8
				C432.4,449,430.2,446.9,430.2,444.3"/>
			<path class="st39" d="M640.5,444.3c0-2.6,2.1-4.8,4.8-4.8s4.8,2.1,4.8,4.8s-2.1,4.8-4.8,4.8S640.5,446.9,640.5,444.3"/>
		</g>
	</g>
	<g class="st1">
		<defs>
			<rect id="SVGID_49_" width="792" height="612"/>
		</defs>
		<clipPath id="SVGID_50_">
			<use xlink:href="#SVGID_49_"  style="overflow:visible;"/>
		</clipPath>
		<g class="st40">
			<text transform="matrix(0.6518 -0.7584 0.7584 0.6518 464.9354 391.2793)" class="st41 st29 st30">!</text>
		</g>
		<g class="st40">
			<text transform="matrix(0.8064 -0.5914 0.5914 0.8064 480.8007 374.3288)" class="st41 st29 st31">&quot;</text>
		</g>
		<g class="st40">
			<text transform="matrix(0.9135 -0.4067 0.4067 0.9135 496.254 363.7453)" class="st41 st29 st30">#</text>
		</g>
		<g class="st40">
			<text transform="matrix(0.9808 -0.1949 0.1949 0.9808 514.9647 356.1895)" class="st41 st29 st31">$</text>
		</g>
		<g class="st40">
			<text transform="matrix(0.9997 -2.335034e-02 2.335034e-02 0.9997 535.1426 353.1699)" class="st41 st29 st31">%</text>
		</g>
		<g class="st40">
			<text transform="matrix(0.9901 0.1405 -0.1405 0.9901 546.459 353.1378)" class="st41 st29 st31">&amp;</text>
		</g>
		<g class="st40">
			<text transform="matrix(0.9506 0.3105 -0.3105 0.9506 565.0234 356.6251)" class="st41 st29 st30">&apos;</text>
		</g>
		<g class="st40">
			<text transform="matrix(0.8821 0.471 -0.471 0.8821 577.0744 360.8895)" class="st41 st29 st31">(</text>
		</g>
		<g class="st40">
			<text transform="matrix(0.7626 0.6468 -0.6468 0.7626 593.279 370.2278)" class="st41 st29 st30">#</text>
		</g>
		<g class="st40">
			<text transform="matrix(0.6093 0.7929 -0.7929 0.6093 608.2032 383.8843)" class="st41 st29 st31">&quot;</text>
		</g>
		<g class="st40">
			<text transform="matrix(0.8887 0.5727 -0.5417 0.8406 472.2963 535.9746)" class="st41 st29 st31">)</text>
		</g>
		<g class="st40">
			<text transform="matrix(0.9956 0.3555 -0.3363 0.9418 494.6346 548.8342)" class="st41 st29 st30">*</text>
		</g>
		<g class="st40">
			<text transform="matrix(1.0515 0.1093 -0.1034 0.9946 519.3945 556.4307)" class="st41 st29 st31">!</text>
		</g>
		<g class="st40">
			<text transform="matrix(1.0494 -0.1284 0.1214 0.9926 548.3047 557.9063)" class="st41 st29 st31">(</text>
		</g>
		<g class="st40">
			<text transform="matrix(0.9976 -0.35 0.3311 0.9436 571.9318 553.9231)" class="st41 st29 st31">+</text>
		</g>
		<g class="st40">
			<text transform="matrix(0.8919 -0.5676 0.5369 0.8436 595.7999 544.201)" class="st41 st29 st31">,</text>
		</g>
	</g>
	<g class="st1">
		<defs>
			<rect id="SVGID_51_" width="792" height="612"/>
		</defs>
		<clipPath id="SVGID_52_">
			<use xlink:href="#SVGID_51_"  style="overflow:visible;"/>
		</clipPath>
		<g class="st42">
			<defs>
				<rect id="SVGID_53_" width="792" height="612"/>
			</defs>
			<clipPath id="SVGID_54_">
				<use xlink:href="#SVGID_53_"  style="overflow:visible;"/>
			</clipPath>
			<path class="st43" d="M542.1,505c0-0.9-0.3-4.2-2.6-4.3V388.6h0.3l0.3-0.9l-0.7-4.8l-1.3-0.4L538,382l5.7-5.5c0.1,0,0.2,0,0.3,0
				c1.6,0,2.9-1.3,2.9-2.9c0-1.6-1.3-2.9-2.9-2.9c-1.6,0-2.8,1.2-2.9,2.8l-8.9,9c0,0-0.2,0.2-0.2,0.8l-1,1c0,0-0.1,0.3,0,0.7
				l-1.2,1.3c0,0,0.1,0.1,0.2,0.3c-0.5,1-3,7.4-0.2,26.7c0.1,0.3,5.7,34.2,5.8,54.3c0,0.2,1,17.9,2.3,29.2v3.8
				c-0.1,0.1-0.2,0.2-0.2,0.3c0,0-1.3,1-1.2,4.4c0,0,0,0,0,0.1l-17.9,8.6l0.6,1.3l18.3-8.8c0.5,0.2,1.2,0.4,2.3,0.4
				c0,0,1.2,0,1.8-0.7l18.9,9.1l0.6-1.3L542.1,505z M537.9,487.9c-0.9-9.9-1.4-20.1-1.4-20.3c-0.1-20.1-5.8-54.1-5.8-54.4
				c-2.6-18.2-0.4-24.8,0.1-26.1c0.1,0,0.1,0.1,0.2,0.1l0.9-1.1c0.2,0.1,0.5,0.2,0.8,0.2l1.1-1.1c0,0,0.2-0.1,0.7-0.3l-0.3,3.5
				l3,0.2h0.7V487.9z"/>
			<path class="st44" d="M539.6,360.6c46.2,0,83.7,37.5,83.7,83.7s-37.5,83.7-83.7,83.7s-83.7-37.5-83.7-83.7
				S493.4,360.6,539.6,360.6 M539.6,357.4c-47.9,0-86.8,38.9-86.8,86.8c0,47.9,39,86.8,86.8,86.8s86.8-38.9,86.8-86.8
				C626.4,396.4,587.5,357.4,539.6,357.4"/>
			<path class="st43" d="M566.5,503.2c0,0-10.4-51.5-18.5-63l17.4-10.7c0,0,4,30,11,40.6c0,0,15.4-33,17-52.4l19.2-6.7
				c0,0-23.7,62.4-23.8,82.1L566.5,503.2z"/>
			<path class="st43" d="M467.5,477.4c0,0,3.7-51.3,0-65.5h22.1c0,0,0.5,27.9,7.2,44.8c0,0,8.3-18.9,7.3-35h22c0,0-2.7,46.6,0,75.1
				h-14.7c0,0,3.4-38.3,0-51.7c0,0-8.7,21.5-8.9,32.3H491c0,0-2.3-21.3-8.9-32.3c0,0-2.4,17.9,0,32.3H467.5z"/>
		</g>
	</g>
</g>
<g id="Layer_3" class="st0">
	<rect class="st1" width="792" height="612"/>
</g>
<g id="Layer_2">
	<g class="st45">
		<g>
			<g>
				<path class="st46" d="M542.3,332.5c-1.5-0.1-3,0-4.4,0c-1.1,0-2.1,0-3.2,0c-0.1-0.9-0.2-1.5-0.3-2.2H532c-0.1,1.1-0.1,2-0.2,3
					c-0.7,0.1-1.3,0.2-2,0.3c-0.1,1.1-0.1,2.2-0.2,3.3c-0.4,0.2-0.8,0.3-1.3,0.5c0,0.8,0,1.6,0,2.3c0,0.4-0.1,0.9-0.3,1
					c-0.9,0.3-0.7,1-0.7,1.6c0,3,0,6.1,0,9.1c0,0.2-0.1,0.4-0.1,0.6c-0.5,0.2-0.9,0.3-1.5,0.5v18.4c-0.5,0.1-0.9,0.3-1.4,0.4
					c-0.1,0.6-0.2,1.1-0.2,1.6c-0.5,0.2-1,0.4-1.6,0.6v18.1c11.6-16.6,20.2-35.6,24.8-56C546.4,333.8,544.7,332.7,542.3,332.5"/>
				<path class="st46" d="M515.9,354.8c-0.7-0.2-1.3-0.3-1.9-0.4v-7.8c-0.9-0.1-1.6-0.2-2.5-0.3V342c0.7-0.1,1.3-0.2,2-0.3
					c-0.1-0.6-0.1-1.1-0.2-1.8h-3.6v-2.5c0-22.5,0-45.1,0-67.6c0-0.6,0-1.2,0-1.7c0-0.3-0.2-0.7-0.4-0.8c-1.2-0.3-0.9-1.3-0.9-2.1
					c0-5.2,0-10.4,0-15.6v-2.1c-0.7-0.1-1.3-0.3-1.8-0.4c-0.1-1.1-0.1-2.1-0.2-3.2c-0.5-0.1-1-0.3-1.6-0.4v-8.7
					c-0.6-0.2-1.1-0.3-1.6-0.5c0-1.5,0.2-3,0-4.3c-0.3-2-0.9-3.9-1.5-5.9c-0.2-0.7-0.4-1.4-0.8-1.9c-0.8-0.9-0.8-1.9-0.8-3.1
					c0-6.2,0-12.4,0-18.5c0-0.4-0.1-0.7-0.1-1.1h-1.3v2.2c0,5.8,0,11.6,0,17.4c0,1,0,1.8-1,2.5c-0.6,0.5-1,1.5-1.3,2.3
					c-0.5,1.8-0.9,3.6-1.3,5.4c-0.4,0.2-0.8,0.3-1.4,0.6v4.6c-0.6,0.2-1.1,0.3-1.7,0.4c0,2.4-0.1,4.7,0,7c0,1.1-0.2,2-1.3,2.2
					c0,1.1-0.1,2.1-0.1,3c-0.6,0.2-1,0.3-1.4,0.5c-0.1,6.5,0,13,0,19.4c-0.8,0.2-1.4,0.3-1.9,0.5c0,0.1-0.1,0.2-0.1,0.3
					c0,23.8,0,47.5-0.1,71.3c0,0.1,0,0.3,0,0.4c0,0.1,0,0.3-0.1,0.4c0,0.1-0.1,0.1-0.1,0.2c0,0-0.1,0.1-0.1,0.1
					c-0.8,0.1-1.5,0.1-2.3,0.2v1.5c0.6,0.2,1,0.3,1.4,0.5v4.1c-0.6,0.2-1,0.3-1.6,0.5v9.5c-0.7-0.1-1.2-0.1-1.9-0.1
					c0-7,0-13.8,0-20.6c0-6.9,0-13.7,0-20.7c-4.2-0.1-8.2,0-12.3-0.1v-74.3c-0.8-0.1-1.4-0.3-2.2-0.4c0-1.9,0-3.7,0-5.5
					c0-3,0-5.9,0-8.9c0-0.4-0.2-0.7-0.3-1.2c-0.6,0.1-1.2,0.1-1.9,0.2v4.8h-4.4v-5.8c-1-0.1-1.9-0.2-2.8-0.3c0-2.1,0-4,0-5.9
					c0-0.5-0.1-1.3-0.4-1.3c-1.2-0.3-0.8-1.2-0.8-1.9c0-1.4-0.1-2.7-1.2-3.7c-0.2-0.2-0.4-0.7-0.4-1c-0.3-2.5-1.4-4.5-3.9-5.7v-28.5
					c-0.6,0-1,0.1-1.5,0.1v28.4c-2.4,0.9-3.5,2.7-3.9,5c-0.1,0.4-0.3,0.8-0.7,1.1c-1.4,1-1.9,2.4-1.8,4c0,0.6,0,1.1,0,1.8
					c-0.6,0.2-1.1,0.3-1.7,0.5v10.2h-6.6v14.1c-0.6,0.1-1.1,0.2-1.8,0.4v7.4v7.3v7.5v7.3v7.3v7.3v7.3v7.5c0,2.4,0,4.9,0,7.3
					c0,2.4,0.1,4.8-0.1,7.4h-2.2c-2.3,0-4.5,0.1-6.8,0c-1.2,0-2.1,0.3-2.9,1.2c-1.4,1.5-2.8,3-4.4,4.4c-1,0.9-1.4,1.9-1.4,3.4
					c0.1,8.7,0,17.4,0,26.1c0,0.7-0.1,1.4-0.1,2h-2.6v-2.4c0-11.8,0-23.6,0-35.3c0-0.5,0-1,0-1.5c0-0.3-0.1-0.8-0.3-0.8
					c-1.1-0.3-0.8-1.1-0.8-1.9c0-6,0-12,0-18c0-1-0.1-1.8-0.9-2.4c-1.6-1.1-2.4-2.6-2.2-4.6c0-0.1-0.1-0.2-0.3-0.3
					c-0.7-0.1-1.4-0.1-2.1-0.2c-0.1-0.6-0.1-1.4-0.3-1.5c-1.2-0.7-0.8-1.7-0.8-2.7c0-1.3,0-2.6,0-3.9c0-0.2-0.1-0.4-0.2-0.6
					c-0.3,0-0.5-0.1-0.8-0.1c-0.2,0-0.5,0.1-0.8,0.2v5.8c-0.5,0.3-0.9,0.4-1.4,0.7c0.3,1.7-0.5,3.1-1.2,4.6
					c-0.6,1.1-1.2,2.3-1.7,3.5c-0.3,0.9-0.6,1.8-0.6,2.8c-0.1,5.5,0,10.9,0,16.4c0,0.7-0.1,1.4-0.1,2c-1,0.1-1.7,0.2-2.7,0.2v35.2
					h-14.5c-0.5-0.7-0.9-1.4-1.4-2.1c-1.2-1.8-1.3-1.8-3.6-1.1v6.1c0,2,0,4,0,6c0,2,0.1,4.1-0.1,6.1h-3.3V342
					c-1.3-0.1-2.4-0.2-3.7-0.3v-69.8c-0.9-0.1-1.6-0.2-2.3-0.3c-0.1-1.1-0.1-2.1-0.2-3.1c-0.7-0.2-1.3-0.3-1.7-0.4
					c-0.3-1.2-0.4-2.2-0.9-3.1c-1.1-1.7-2.4-3.4-3.6-5c-0.6-0.8-0.8-1.6-0.7-2.5c0-3.3,0-6.7,0-10c0-0.7,0.1-1.4,0-2.1
					c0-0.3-0.4-0.5-0.7-0.8c-0.1,0.1-0.3,0.1-0.4,0.2v1.9c0,3.5,0,7.1,0,10.6c0,0.6,0,1.4-0.3,1.9c-1.1,1.8-2.3,3.6-3.6,5.2
					c-0.7,0.9-1.2,1.6-1.1,2.7c0,0.4-0.1,0.7-0.1,1.1c-0.7,0.2-1.3,0.3-1.9,0.4c-0.1,1.1-0.1,2-0.2,2.9c-0.6,0.3-1,0.5-1.5,0.7v17.3
					v17.2c0,5.8,0,11.6,0,17.4c0,5.7,0,11.4,0,17.2c-1.8,0.1-3.3,0.2-4.9,0.2v22.4H340V282c-0.8,0.1-1.3,0.1-2.1,0.1v12.7
					c-0.7,0-1.1-0.1-1.5-0.1c-0.2-0.6-0.4-1.1-0.5-1.6c-0.7-0.1-1.2-0.2-2-0.3c-0.2-4.9,0.1-9.7-0.1-14.8h-7.3v-26.6h-4.1v26.7h-7.2
					v15c-0.9,0.1-1.5,0.2-2.2,0.3c-0.1,0.8-0.2,1.6-0.3,2.4c-0.7-0.1-1.2-0.1-1.9-0.2v-13.9h-1.8v26.3h-3.9v-6.7v-6.8v-6.6v-6.6
					c0-2.3,0-4.5,0-6.8c0-2.2,0.1-4.3-0.1-6.5c-2.7-0.3-5.1,0.1-7.6-0.3v-2.3c0-4-0.1-8,0-12c0.1-2.1-0.4-3.9-1.9-5.4
					c-1.7-1.8-3.1-3.8-2.6-6.5c0-0.1-0.1-0.2-0.2-0.4c-0.6-0.1-1.3-0.2-1.9-0.3c-0.1-0.7-0.2-1.2-0.3-1.8c-1.1-0.1-2.2-0.1-3.3-0.2
					c-0.1-0.9-0.2-1.6-0.3-2.4c-0.6,0-1.1,0.1-1.6,0.1c-0.1,0.9-0.1,1.6-0.2,2.3c-0.8,0.3-1.6,0.4-2,0.8c-0.7,0.6-1.3,0.7-2.1,0.7
					c-0.5,0-1,0.1-1.6,0.2c0,0.7,0,1.3,0,1.9c0.1,1.4-0.2,2.6-1.3,3.6c-1.1,1.1-2,2.3-3.1,3.4c-0.7,0.7-1,1.6-1,2.6
					c0,4.6,0,9.1,0,13.7v2.3h-7.7v11.5c0,3.8,0,7.6,0,11.4c0,3.7,0,7.4,0,11.1c-0.9,0.1-1.5,0.2-2.4,0.3c0,0.9,0,1.8,0,2.7
					c0,1.3,0,2.6,0,3.9c0,5.9,0,11.7,0,17.6c0,0.4,0,0.9-0.1,1.3c-1.1,2.1-2.6,3.8-4.4,5.5c-0.2-0.7-0.2-1.3-0.2-2
					c0-2.9,0-5.8,0-8.7c0-0.5-0.1-1.3-0.3-1.4c-1.2-0.3-0.9-1.2-0.9-2c0-1.5,0-3.1,0-4.6c0-0.5-0.1-1-0.2-1.4
					c-0.9-0.1-1.5-0.2-2.3-0.3c-0.1-1.2-0.1-2.4-0.2-3.6c-0.7-0.1-1.3-0.2-2.1-0.3v-16.4c-0.7-0.2-1.3-0.3-1.9-0.4v-2.2
					c0-5.9,0-11.8,0-17.8c0-0.5,0.1-1-0.1-1.5c-0.1-0.2-0.5-0.4-1.1-0.8c0,7.8,0,15.1,0,22.5c-0.9,0.1-1.6,0.2-2.5,0.4v16.4
					c-0.8,0.1-1.4,0.2-2.1,0.3c-0.1,1.2-0.1,2.4-0.2,3.5c-0.6,0.2-1.1,0.3-1.7,0.5v7.2c-0.6,0.1-1,0.3-1.7,0.4v11.5
					c-0.7,0.1-1.2,0.2-1.9,0.3v8.1c8.3,31.8,26.3,59.7,50.6,80.4l-3.9-0.2l26.6,21.2l44.7,15.7l36.9,4.1l37.6-3.1l36.2-15.4
					l17.1-10.2l-5-0.9c14.9-10,28.1-22.3,38.9-36.7v-22c-1.2-0.1-2.3-0.2-3.5-0.3V354.8z"/>
			</g>
		</g>
	</g>
	<path class="st47" d="M392.8,556.4c-67.1,0-130.2-25.7-178.3-72.6c-49.6-48.4-76.9-113.3-76.9-182.6
		c0-140.7,114.5-255.3,255.3-255.3c69.3,0,134.2,27.3,182.6,76.9c48.4,49.6,74.2,115.1,72.6,184.5c-1.5,65.5-28.1,127.3-74.9,174.1
		c-46.8,46.8-108.6,73.4-174.1,74.9C396.9,556.4,394.8,556.4,392.8,556.4 M392.8,61.1c-132.4,0-240.1,107.7-240.1,240.1
		c0,65.2,25.7,126.2,72.3,171.8c46.6,45.6,108.2,69.8,173.5,68.3c61.6-1.4,119.7-26.5,163.7-70.5c44-44,69-102.2,70.5-163.7
		c1.5-65.3-22.7-126.9-68.3-173.5C519,86.8,458,61.1,392.8,61.1"/>
	<path class="st47" d="M392.8,465.5c-90.6,0-164.3-73.7-164.3-164.3s73.7-164.3,164.3-164.3s164.3,73.7,164.3,164.3
		S483.4,465.5,392.8,465.5 M392.8,142.9c-87.2,0-158.2,71-158.2,158.2c0,87.2,71,158.2,158.2,158.2s158.2-71,158.2-158.2
		C551.1,213.9,480.1,142.9,392.8,142.9"/>
	<path class="st47" d="M182,301.2c0-5.1,4.1-9.2,9.2-9.2c5.1,0,9.2,4.1,9.2,9.2c0,5.1-4.1,9.2-9.2,9.2
		C186.1,310.4,182,306.3,182,301.2"/>
	<path class="st47" d="M587.2,301.2c0-5.1,4.1-9.2,9.2-9.2c5.1,0,9.2,4.1,9.2,9.2c0,5.1-4.1,9.2-9.2,9.2
		C591.3,310.4,587.2,306.3,587.2,301.2"/>
	<polygon class="st47" points="252.9,185.4 240.6,180.1 254.7,192.3 248.9,199 217.5,172 223.3,165.3 242.2,173.7 231,156.3 
		236.8,149.6 268.2,176.6 262.4,183.3 248.3,171.2 255.3,182.5 	"/>
	<path class="st47" d="M282.9,158.4l2.1,4l-7.2,5.3l-18.1-38.2l7.2-5.3l31,28.7l-7.2,5.3l-3.1-3.2L282.9,158.4z M282.2,149.3
		l-9.2-9.4l6.2,11.6L282.2,149.3z"/>
	<path class="st47" d="M310.5,127l6.9,15.4l-8.1,3.6l-16.9-37.9l10.8-4.8c7.2-3.2,12.3-1.6,15.2,4.9l1.3,3c1.2,2.6,1.5,4.9,1,7
		c1.8,1,3.3,2.9,4.5,5.5l3.9,8.7c0.6,1.4,1.5,2.7,2.6,3.7l-8.1,3.6c-1.1-1-2-2.3-2.6-3.7l-3.9-8.7c-0.8-1.8-2.1-2.3-3.9-1.5
		L310.5,127z M310.1,118.7c1.8-0.8,2.3-2.1,1.5-3.9l-1.3-3c-0.8-1.8-2.1-2.3-3.9-1.5l-2.7,1.2l3.7,8.4L310.1,118.7z"/>
	<polygon class="st47" points="354.1,129.7 345.4,131.4 337.4,90.7 346.1,89 348.4,100.9 351.9,87.9 361.2,86 355.5,106.2 
		369.2,126.7 359.9,128.5 352.1,115.6 351.7,117.2 	"/>
	<polygon class="st47" points="418.7,85.5 418.7,110.9 425.7,86.5 434.5,87.7 420.7,127.6 412,126.4 409.9,84.2 	"/>
	
		<rect x="431.8" y="109.5" transform="matrix(0.311 -0.9504 0.9504 0.311 203.5039 508.6673)" class="st47" width="41.5" height="8.9"/>
	<polygon class="st47" points="502.9,113.7 499.3,120.5 488.8,114.9 484.5,123 492.3,127.2 488.7,134 480.9,129.8 476.5,137.9 
		487,143.5 483.4,150.3 465.1,140.5 484.6,104 	"/>
	<path class="st47" d="M514.1,151.5l-10.9,12.9l-6.8-5.8l26.8-31.6l9,7.7c6,5.1,6.7,10.4,2.1,15.8l-2.1,2.5c-1.8,2.2-3.8,3.5-5.9,4
		c-0.1,2.1-1.1,4.3-3,6.4l-6.1,7.2c-1,1.2-1.8,2.5-2.2,4l-6.8-5.8c0.4-1.4,1.2-2.8,2.2-4l6.1-7.2c1.3-1.5,1.2-2.9-0.3-4.2
		L514.1,151.5z M521.3,147.5c1.5,1.3,2.9,1.2,4.2-0.3l2.1-2.5c1.3-1.5,1.2-2.9-0.3-4.2l-2.3-1.9l-5.9,7L521.3,147.5z"/>
	<path class="st47" d="M533.2,188.2l-3.9,2.2l-5.4-7.1l37.8-18.9l5.4,7.1l-28,31.6l-5.4-7l3.1-3.2L533.2,188.2z M542.2,187.3
		l9.2-9.4l-11.5,6.4L542.2,187.3z"/>
	<path class="st47" d="M279.4,452.5c4.3-6.6,9.9-7.7,16.9-3.2c7,4.5,8.4,10.1,4.1,16.7l-1.6,2.5l-7.9-5.1l2.2-3.5
		c1.1-1.7,0.7-3.1-1-4.2c-1.8-1.1-3.2-0.9-4.2,0.8l-11.6,17.9c-1.1,1.7-0.7,3.1,1,4.2c1.8,1.1,3.2,0.9,4.2-0.8l2.2-3.5l7.9,5.1
		l-1.6,2.5c-4.3,6.6-9.9,7.7-16.9,3.2c-7-4.5-8.4-10.1-4.1-16.7L279.4,452.5z"/>
	<path class="st47" d="M316.2,474.2c2.7-7.4,7.9-9.7,15.8-6.9c7.9,2.8,10.5,7.9,7.8,15.4l-6.4,17.8c-2.7,7.4-7.9,9.7-15.8,6.9
		c-7.9-2.8-10.5-7.9-7.8-15.4L316.2,474.2z M318.3,496.4c-0.7,1.9,0,3.1,2,3.8c2,0.7,3.3,0.1,3.9-1.7l7.2-20.1c0.7-1.9,0-3.1-2-3.8
		c-2-0.7-3.3-0.1-3.9,1.7L318.3,496.4z"/>
	<polygon class="st47" points="368,512.9 365.1,499.7 363.1,518.3 353.8,517.3 358.1,476.1 367.4,477.1 371.6,497.5 379.9,478.4 
		389.2,479.3 384.9,520.6 375.6,519.6 377.5,501 371.9,513.3 	"/>
	<polygon class="st47" points="426.1,476.4 427.1,484 414.6,485.6 415.7,494.7 425.1,493.5 426,501.2 416.7,502.3 417.8,511.4 
		430.2,509.9 431.1,517.6 409.4,520.2 404.4,479 	"/>
	<path class="st47" d="M453,469.3c7.9-2.8,13.1-0.4,15.7,7l5.9,16.8c2.6,7.5,0,12.6-7.9,15.3l-11.8,4.1l-13.7-39.1L453,469.3z
		 M461.2,502.2l3-1c2-0.7,2.6-2,2-3.8l-6.6-19c-0.7-1.9-2-2.4-3.9-1.8l-3,1L461.2,502.2z"/>
	<polygon class="st47" points="498.6,475.9 478,459.3 486,454.3 496.1,463.3 492.3,450.2 500.3,445.2 506.5,470.8 515.3,484.7 
		507.4,489.8 	"/>
	<path class="st47" d="M395.6,165c0-3.1,2.5-5.6,5.6-5.6s5.6,2.5,5.6,5.6c0,3.1-2.5,5.6-5.6,5.6S395.6,168.1,395.6,165"/>
	<path class="st47" d="M376.1,185.6c0,0-0.7,3.7,3.2,3.8l2.2-2.2c0,0,0.8-0.2,3-1.3l16.3-15.6l-5.2-5.7l-17.2,17.5
		c0,0-0.5,0.3-0.5,1.5L376.1,185.6z"/>
	<polygon class="st47" points="388.9,179.4 390.1,182 392.5,182.8 393.8,192 393.1,193.8 388.1,193.8 382.3,193.5 383.1,185.3 	"/>
	<path class="st47" d="M376.3,186.9l-2.4,2.7c0,0,0.6,1.6,2.1,1.6l2.9-3.6L376.3,186.9z"/>
	<path class="st47" d="M391.3,415c-3.4-17.2-6.3-68.2-6.3-68.7c-0.2-38.7-11.1-104-11.2-104.7c-5.8-40,0.3-51.3,0.6-51.8l1.5,0.8
		l-0.7-0.4l0.8,0.4c-0.1,0.1-6,11.5-0.4,50.7c0.1,0.6,11.1,66.1,11.2,104.9c0,0.5,2.9,51.3,6.3,68.4L391.3,415z"/>
	<rect x="389.5" y="190.6" class="st47" width="3.1" height="222.1"/>
	<path class="st47" d="M389.1,410.6c0,0-2.5,1.9-2.3,8.6c0,0,0.2,3.1,6.5,3.1c0,0,4.4,0,4.4-3.7c0,0,0-8.8-5.3-8.8
		C392.3,409.8,388.9,409.4,389.1,410.6"/>
	
		<rect x="351" y="426.8" transform="matrix(0.9018 -0.4322 0.4322 0.9018 -148.6024 202.5976)" class="st47" width="40.9" height="2.8"/>
	
		<rect x="414" y="407.8" transform="matrix(0.4324 -0.9017 0.9017 0.4324 -150.3477 617.6422)" class="st47" width="2.8" height="40.9"/>
	<path class="st47" d="M444.6,414.7c0,0-20.1-99.3-35.7-121.4l33.6-20.6c0,0,7.8,57.8,21.1,78.1c0,0,29.7-63.6,32.7-101l37-12.9
		c0,0-45.7,120.3-45.9,158.3L444.6,414.7z"/>
	<path class="st47" d="M253.8,365c0,0,7.1-98.9,0-126.2h42.5c0,0,0.9,53.8,13.8,86.3c0,0,16-36.4,14.1-67.4h42.5
		c0,0-5.2,89.9,0,144.8h-28.2c0,0,6.5-73.8,0-99.6c0,0-16.7,41.4-17.1,62.2h-22.3c0,0-4.5-41.1-17.1-62.2c0,0-4.6,34.6,0,62.2H253.8
		z"/>
</g>
</svg>
